unsigned char quanyecha_mid[] = {
  0x4d, 0x54, 0x68, 0x64, 0x00, 0x00, 0x00, 0x06, 0x00, 0x01, 0x00, 0x03,
  0x01, 0xe0, 0x4d, 0x54, 0x72, 0x6b, 0x00, 0x00, 0x00, 0x50, 0x00, 0xff,
  0x03, 0x0f, 0xb3, 0xac, 0xd4, 0xbd, 0xca, 0xb1, 0xbf, 0xd5, 0xb5, 0xc4,
  0xcb, 0xbc, 0xc4, 0xee, 0x20, 0x00, 0xff, 0x58, 0x04, 0x04, 0x02, 0x18,
  0x08, 0x00, 0xff, 0x51, 0x03, 0x0f, 0x42, 0x40, 0x9e, 0x00, 0xff, 0x51,
  0x03, 0x0d, 0x14, 0x36, 0xae, 0x70, 0xff, 0x51, 0x03, 0x0f, 0x42, 0x40,
  0x82, 0xf5, 0x10, 0xff, 0x51, 0x03, 0x0d, 0x76, 0xb0, 0x8f, 0x00, 0xff,
  0x51, 0x03, 0x0f, 0x42, 0x40, 0x8f, 0x00, 0xff, 0x51, 0x03, 0x12, 0x4f,
  0x80, 0x9e, 0x00, 0xff, 0x2f, 0x00, 0x4d, 0x54, 0x72, 0x6b, 0x00, 0x00,
  0x09, 0x8a, 0x00, 0xff, 0x03, 0x07, 0x54, 0x72, 0x61, 0x63, 0x6b, 0x20,
  0x31, 0x00, 0xff, 0x04, 0x1b, 0x4d, 0x69, 0x63, 0x72, 0x6f, 0x73, 0x6f,
  0x66, 0x74, 0x20, 0x47, 0x53, 0x20, 0xb2, 0xa8, 0xb1, 0xed, 0xc8, 0xed,
  0xbc, 0xfe, 0xba, 0xcf, 0xb3, 0xc9, 0xc6, 0xf7, 0x00, 0xff, 0x59, 0x02,
  0xfe, 0x00, 0x00, 0xc0, 0x00, 0x00, 0xb0, 0x0a, 0x40, 0x00, 0x90, 0x43,
  0x50, 0x1b, 0x80, 0x43, 0x40, 0x03, 0x90, 0x4a, 0x50, 0x1b, 0x80, 0x4a,
  0x40, 0x03, 0x90, 0x51, 0x50, 0x1b, 0x80, 0x51, 0x40, 0x03, 0x90, 0x56,
  0x50, 0x1b, 0x80, 0x56, 0x40, 0x03, 0x90, 0x54, 0x50, 0x82, 0x44, 0x80,
  0x54, 0x40, 0x24, 0x90, 0x51, 0x50, 0x83, 0x30, 0x80, 0x51, 0x40, 0x30,
  0x90, 0x4d, 0x50, 0x86, 0x60, 0x80, 0x4d, 0x40, 0x60, 0x90, 0x37, 0x50,
  0x1b, 0x80, 0x37, 0x40, 0x03, 0x90, 0x3e, 0x50, 0x1b, 0x80, 0x3e, 0x40,
  0x03, 0x90, 0x45, 0x50, 0x1b, 0x80, 0x45, 0x40, 0x03, 0x90, 0x4a, 0x50,
  0x1b, 0x80, 0x4a, 0x40, 0x03, 0x90, 0x48, 0x50, 0x82, 0x44, 0x80, 0x48,
  0x40, 0x24, 0x90, 0x45, 0x50, 0x83, 0x30, 0x80, 0x45, 0x40, 0x30, 0x90,
  0x41, 0x50, 0x86, 0x60, 0x80, 0x41, 0x40, 0x84, 0x40, 0x90, 0x52, 0x50,
  0x83, 0x30, 0x80, 0x52, 0x40, 0x30, 0x90, 0x51, 0x50, 0x83, 0x30, 0x80,
  0x51, 0x40, 0x30, 0x90, 0x4d, 0x50, 0x83, 0x30, 0x80, 0x4d, 0x40, 0x30,
  0x90, 0x4a, 0x50, 0x83, 0x30, 0x80, 0x4a, 0x40, 0x30, 0x90, 0x46, 0x50,
  0x83, 0x30, 0x80, 0x46, 0x40, 0x30, 0x90, 0x45, 0x50, 0x83, 0x30, 0x80,
  0x45, 0x40, 0x30, 0x90, 0x41, 0x50, 0x83, 0x30, 0x80, 0x41, 0x40, 0x30,
  0x90, 0x3c, 0x50, 0x86, 0x60, 0x80, 0x3c, 0x40, 0x60, 0x90, 0x3e, 0x50,
  0x86, 0x60, 0x80, 0x3e, 0x40, 0x60, 0x90, 0x4a, 0x50, 0x81, 0x58, 0x80,
  0x4a, 0x40, 0x18, 0x90, 0x4d, 0x50, 0x81, 0x58, 0x80, 0x4d, 0x40, 0x18,
  0x90, 0x46, 0x50, 0x1b, 0x80, 0x46, 0x40, 0x03, 0x90, 0x4a, 0x50, 0x1b,
  0x80, 0x4a, 0x40, 0x03, 0x90, 0x4f, 0x50, 0x82, 0x44, 0x80, 0x4f, 0x40,
  0x60, 0x90, 0x4f, 0x50, 0x81, 0x58, 0x80, 0x4f, 0x40, 0x18, 0x90, 0x52,
  0x50, 0x81, 0x58, 0x80, 0x52, 0x40, 0x18, 0x90, 0x4d, 0x50, 0x1b, 0x80,
  0x4d, 0x40, 0x03, 0x90, 0x51, 0x50, 0x1b, 0x80, 0x51, 0x40, 0x03, 0x90,
  0x54, 0x50, 0x82, 0x44, 0x80, 0x54, 0x40, 0x60, 0x90, 0x56, 0x50, 0x81,
  0x58, 0x80, 0x56, 0x40, 0x18, 0x90, 0x59, 0x50, 0x81, 0x58, 0x80, 0x59,
  0x40, 0x18, 0x90, 0x4d, 0x50, 0x1b, 0x80, 0x4d, 0x40, 0x03, 0x90, 0x51,
  0x50, 0x1b, 0x80, 0x51, 0x40, 0x03, 0x90, 0x56, 0x50, 0x82, 0x44, 0x80,
  0x56, 0x40, 0x60, 0x90, 0x54, 0x50, 0x81, 0x58, 0x80, 0x54, 0x40, 0x18,
  0x90, 0x52, 0x50, 0x81, 0x58, 0x80, 0x52, 0x40, 0x18, 0x90, 0x4f, 0x50,
  0x83, 0x30, 0x80, 0x4f, 0x40, 0x30, 0x90, 0x56, 0x50, 0x81, 0x58, 0x80,
  0x56, 0x40, 0x18, 0x90, 0x54, 0x50, 0x81, 0x58, 0x80, 0x54, 0x40, 0x18,
  0x90, 0x4f, 0x50, 0x83, 0x30, 0x80, 0x4f, 0x40, 0x30, 0x90, 0x56, 0x50,
  0x81, 0x58, 0x80, 0x56, 0x40, 0x18, 0x90, 0x54, 0x50, 0x81, 0x58, 0x80,
  0x54, 0x40, 0x18, 0x90, 0x4f, 0x50, 0x83, 0x30, 0x80, 0x4f, 0x40, 0x30,
  0x90, 0x4d, 0x50, 0x83, 0x30, 0x80, 0x4d, 0x40, 0x30, 0x90, 0x4a, 0x50,
  0x8a, 0x10, 0x80, 0x4a, 0x40, 0x81, 0x10, 0x90, 0x4a, 0x50, 0x81, 0x58,
  0x80, 0x4a, 0x40, 0x18, 0x90, 0x4d, 0x50, 0x81, 0x58, 0x80, 0x4d, 0x40,
  0x18, 0x90, 0x4f, 0x50, 0x83, 0x30, 0x80, 0x4f, 0x40, 0x30, 0x90, 0x4f,
  0x50, 0x81, 0x58, 0x80, 0x4f, 0x40, 0x18, 0x90, 0x52, 0x50, 0x81, 0x58,
  0x80, 0x52, 0x40, 0x18, 0x90, 0x54, 0x50, 0x83, 0x30, 0x80, 0x54, 0x40,
  0x30, 0x90, 0x56, 0x50, 0x81, 0x58, 0x80, 0x56, 0x40, 0x18, 0x90, 0x59,
  0x50, 0x81, 0x58, 0x80, 0x59, 0x40, 0x18, 0x90, 0x56, 0x50, 0x83, 0x30,
  0x80, 0x56, 0x40, 0x30, 0x90, 0x54, 0x50, 0x81, 0x58, 0x80, 0x54, 0x40,
  0x18, 0x90, 0x52, 0x50, 0x81, 0x58, 0x80, 0x52, 0x40, 0x18, 0x90, 0x4f,
  0x50, 0x83, 0x30, 0x80, 0x4f, 0x40, 0x30, 0x90, 0x56, 0x50, 0x81, 0x58,
  0x80, 0x56, 0x40, 0x18, 0x90, 0x54, 0x50, 0x81, 0x58, 0x80, 0x54, 0x40,
  0x18, 0x90, 0x4f, 0x50, 0x83, 0x30, 0x80, 0x4f, 0x40, 0x30, 0x90, 0x56,
  0x50, 0x81, 0x58, 0x80, 0x56, 0x40, 0x18, 0x90, 0x54, 0x50, 0x81, 0x58,
  0x80, 0x54, 0x40, 0x18, 0x90, 0x4f, 0x50, 0x83, 0x30, 0x80, 0x4f, 0x40,
  0x30, 0x90, 0x4d, 0x50, 0x83, 0x30, 0x80, 0x4d, 0x40, 0x30, 0x90, 0x4f,
  0x50, 0x8a, 0x10, 0x80, 0x4f, 0x40, 0x81, 0x10, 0x90, 0x3e, 0x50, 0x00,
  0x90, 0x4a, 0x50, 0x81, 0x58, 0x80, 0x3e, 0x40, 0x00, 0x80, 0x4a, 0x40,
  0x18, 0x90, 0x41, 0x50, 0x00, 0x90, 0x4d, 0x50, 0x81, 0x16, 0x90, 0x43,
  0x50, 0x16, 0x90, 0x46, 0x50, 0x17, 0x90, 0x4a, 0x50, 0x15, 0x80, 0x41,
  0x40, 0x00, 0x80, 0x4d, 0x40, 0x01, 0x90, 0x4f, 0x50, 0x84, 0x45, 0x80,
  0x43, 0x40, 0x16, 0x80, 0x46, 0x40, 0x17, 0x80, 0x4a, 0x40, 0x16, 0x80,
  0x4f, 0x40, 0x5f, 0x90, 0x4d, 0x50, 0x00, 0x90, 0x41, 0x50, 0x81, 0x58,
  0x80, 0x4d, 0x40, 0x00, 0x80, 0x41, 0x40, 0x18, 0x90, 0x4f, 0x50, 0x00,
  0x90, 0x43, 0x50, 0x83, 0x30, 0x80, 0x4f, 0x40, 0x00, 0x80, 0x43, 0x40,
  0x30, 0x90, 0x51, 0x50, 0x00, 0x90, 0x45, 0x50, 0x81, 0x58, 0x80, 0x51,
  0x40, 0x00, 0x80, 0x45, 0x40, 0x18, 0x90, 0x4d, 0x50, 0x00, 0x90, 0x41,
  0x50, 0x81, 0x58, 0x80, 0x4d, 0x40, 0x00, 0x80, 0x41, 0x40, 0x18, 0x90,
  0x4f, 0x50, 0x00, 0x90, 0x43, 0x50, 0x83, 0x30, 0x80, 0x4f, 0x40, 0x00,
  0x80, 0x43, 0x40, 0x30, 0x90, 0x41, 0x50, 0x00, 0x90, 0x4d, 0x50, 0x81,
  0x58, 0x80, 0x41, 0x40, 0x00, 0x80, 0x4d, 0x40, 0x18, 0x90, 0x3c, 0x50,
  0x00, 0x90, 0x48, 0x50, 0x81, 0x58, 0x80, 0x3c, 0x40, 0x00, 0x80, 0x48,
  0x40, 0x18, 0x90, 0x4a, 0x50, 0x00, 0x90, 0x3e, 0x50, 0x83, 0x30, 0x80,
  0x4a, 0x40, 0x00, 0x80, 0x3e, 0x40, 0x30, 0x90, 0x3e, 0x50, 0x00, 0x90,
  0x4a, 0x50, 0x81, 0x58, 0x80, 0x3e, 0x40, 0x00, 0x80, 0x4a, 0x40, 0x18,
  0x90, 0x41, 0x50, 0x00, 0x90, 0x4d, 0x50, 0x81, 0x16, 0x90, 0x43, 0x50,
  0x16, 0x90, 0x46, 0x50, 0x17, 0x90, 0x4a, 0x50, 0x15, 0x80, 0x41, 0x40,
  0x00, 0x80, 0x4d, 0x40, 0x01, 0x90, 0x4f, 0x50, 0x82, 0x6d, 0x80, 0x43,
  0x40, 0x16, 0x80, 0x46, 0x40, 0x17, 0x80, 0x4a, 0x40, 0x81, 0x6e, 0x80,
  0x4f, 0x40, 0x5f, 0x90, 0x4d, 0x50, 0x00, 0x90, 0x41, 0x50, 0x81, 0x58,
  0x80, 0x4d, 0x40, 0x00, 0x80, 0x41, 0x40, 0x18, 0x90, 0x4f, 0x50, 0x00,
  0x90, 0x43, 0x50, 0x81, 0x58, 0x80, 0x4f, 0x40, 0x00, 0x80, 0x43, 0x40,
  0x18, 0x90, 0x52, 0x50, 0x00, 0x90, 0x46, 0x50, 0x81, 0x58, 0x80, 0x52,
  0x40, 0x00, 0x80, 0x46, 0x40, 0x18, 0x90, 0x51, 0x50, 0x00, 0x90, 0x45,
  0x50, 0x81, 0x58, 0x80, 0x51, 0x40, 0x00, 0x80, 0x45, 0x40, 0x18, 0x90,
  0x4d, 0x50, 0x00, 0x90, 0x41, 0x50, 0x81, 0x58, 0x80, 0x4d, 0x40, 0x00,
  0x80, 0x41, 0x40, 0x18, 0x90, 0x4a, 0x50, 0x00, 0x90, 0x3e, 0x50, 0x81,
  0x58, 0x80, 0x4a, 0x40, 0x00, 0x80, 0x3e, 0x40, 0x18, 0x90, 0x52, 0x50,
  0x6c, 0x80, 0x52, 0x40, 0x0c, 0x90, 0x51, 0x50, 0x6c, 0x80, 0x51, 0x40,
  0x0c, 0x90, 0x52, 0x50, 0x6c, 0x80, 0x52, 0x40, 0x0c, 0x90, 0x51, 0x50,
  0x6c, 0x80, 0x51, 0x40, 0x0c, 0x90, 0x4d, 0x50, 0x6c, 0x80, 0x4d, 0x40,
  0x0c, 0x90, 0x4a, 0x50, 0x6c, 0x80, 0x4a, 0x40, 0x0c, 0x90, 0x43, 0x50,
  0x83, 0x30, 0x80, 0x43, 0x40, 0x30, 0x90, 0x3e, 0x50, 0x00, 0x90, 0x4a,
  0x50, 0x81, 0x58, 0x80, 0x3e, 0x40, 0x00, 0x80, 0x4a, 0x40, 0x18, 0x90,
  0x41, 0x50, 0x00, 0x90, 0x4d, 0x50, 0x81, 0x16, 0x90, 0x43, 0x50, 0x16,
  0x90, 0x46, 0x50, 0x17, 0x90, 0x4a, 0x50, 0x15, 0x80, 0x41, 0x40, 0x00,
  0x80, 0x4d, 0x40, 0x01, 0x90, 0x4f, 0x50, 0x84, 0x45, 0x80, 0x43, 0x40,
  0x16, 0x80, 0x46, 0x40, 0x17, 0x80, 0x4a, 0x40, 0x16, 0x80, 0x4f, 0x40,
  0x5f, 0x90, 0x4d, 0x50, 0x00, 0x90, 0x41, 0x50, 0x81, 0x58, 0x80, 0x4d,
  0x40, 0x00, 0x80, 0x41, 0x40, 0x18, 0x90, 0x4f, 0x50, 0x00, 0x90, 0x43,
  0x50, 0x83, 0x30, 0x80, 0x4f, 0x40, 0x00, 0x80, 0x43, 0x40, 0x30, 0x90,
  0x51, 0x50, 0x00, 0x90, 0x45, 0x50, 0x81, 0x58, 0x80, 0x51, 0x40, 0x00,
  0x80, 0x45, 0x40, 0x18, 0x90, 0x4d, 0x50, 0x00, 0x90, 0x41, 0x50, 0x81,
  0x58, 0x80, 0x4d, 0x40, 0x00, 0x80, 0x41, 0x40, 0x18, 0x90, 0x4f, 0x50,
  0x00, 0x90, 0x43, 0x50, 0x83, 0x30, 0x80, 0x4f, 0x40, 0x00, 0x80, 0x43,
  0x40, 0x30, 0x90, 0x41, 0x50, 0x00, 0x90, 0x4d, 0x50, 0x81, 0x58, 0x80,
  0x41, 0x40, 0x00, 0x80, 0x4d, 0x40, 0x18, 0x90, 0x3c, 0x50, 0x00, 0x90,
  0x48, 0x50, 0x81, 0x58, 0x80, 0x3c, 0x40, 0x00, 0x80, 0x48, 0x40, 0x18,
  0x90, 0x4a, 0x50, 0x00, 0x90, 0x3e, 0x50, 0x83, 0x30, 0x80, 0x4a, 0x40,
  0x00, 0x80, 0x3e, 0x40, 0x30, 0x90, 0x3e, 0x50, 0x00, 0x90, 0x4a, 0x50,
  0x81, 0x58, 0x80, 0x3e, 0x40, 0x00, 0x80, 0x4a, 0x40, 0x18, 0x90, 0x3c,
  0x50, 0x00, 0x90, 0x48, 0x50, 0x81, 0x58, 0x80, 0x3c, 0x40, 0x00, 0x80,
  0x48, 0x40, 0x18, 0x90, 0x37, 0x50, 0x00, 0x90, 0x43, 0x50, 0x83, 0x30,
  0x80, 0x37, 0x40, 0x00, 0x80, 0x43, 0x40, 0x30, 0x90, 0x3e, 0x50, 0x00,
  0x90, 0x4a, 0x50, 0x81, 0x58, 0x80, 0x3e, 0x40, 0x00, 0x80, 0x4a, 0x40,
  0x18, 0x90, 0x3c, 0x50, 0x00, 0x90, 0x48, 0x50, 0x81, 0x58, 0x80, 0x3c,
  0x40, 0x00, 0x80, 0x48, 0x40, 0x18, 0x90, 0x37, 0x50, 0x00, 0x90, 0x43,
  0x50, 0x83, 0x30, 0x80, 0x37, 0x40, 0x00, 0x80, 0x43, 0x40, 0x30, 0x90,
  0x35, 0x50, 0x00, 0x90, 0x41, 0x50, 0x83, 0x30, 0x80, 0x35, 0x40, 0x00,
  0x80, 0x41, 0x40, 0x30, 0x90, 0x37, 0x50, 0x00, 0x90, 0x43, 0x50, 0x8a,
  0x10, 0x80, 0x37, 0x40, 0x00, 0x80, 0x43, 0x40, 0x81, 0x10, 0xb0, 0x07,
  0x6e, 0x00, 0x90, 0x56, 0x50, 0x00, 0x90, 0x4a, 0x50, 0x81, 0x58, 0x80,
  0x56, 0x40, 0x00, 0x80, 0x4a, 0x40, 0x18, 0x90, 0x59, 0x50, 0x00, 0x90,
  0x4d, 0x50, 0x81, 0x16, 0x90, 0x4f, 0x50, 0x16, 0x90, 0x52, 0x50, 0x17,
  0x90, 0x56, 0x50, 0x15, 0x80, 0x59, 0x40, 0x00, 0x80, 0x4d, 0x40, 0x01,
  0x90, 0x5b, 0x50, 0x81, 0x58, 0x80, 0x5b, 0x40, 0x82, 0x6d, 0x80, 0x4f,
  0x40, 0x16, 0x80, 0x52, 0x40, 0x17, 0x80, 0x56, 0x40, 0x75, 0x90, 0x59,
  0x50, 0x00, 0x90, 0x4d, 0x50, 0x81, 0x58, 0x80, 0x59, 0x40, 0x00, 0x80,
  0x4d, 0x40, 0x18, 0x90, 0x5b, 0x50, 0x00, 0x90, 0x4f, 0x50, 0x81, 0x58,
  0x80, 0x5b, 0x40, 0x81, 0x58, 0x80, 0x4f, 0x40, 0x30, 0x90, 0x5d, 0x50,
  0x00, 0x90, 0x51, 0x50, 0x81, 0x58, 0x80, 0x5d, 0x40, 0x00, 0x80, 0x51,
  0x40, 0x18, 0x90, 0x59, 0x50, 0x00, 0x90, 0x4d, 0x50, 0x81, 0x58, 0x80,
  0x59, 0x40, 0x00, 0x80, 0x4d, 0x40, 0x18, 0x90, 0x5b, 0x50, 0x00, 0x90,
  0x4f, 0x50, 0x81, 0x58, 0x80, 0x5b, 0x40, 0x81, 0x58, 0x80, 0x4f, 0x40,
  0x30, 0x90, 0x59, 0x50, 0x00, 0x90, 0x4d, 0x50, 0x81, 0x58, 0x80, 0x59,
  0x40, 0x00, 0x80, 0x4d, 0x40, 0x18, 0x90, 0x54, 0x50, 0x00, 0x90, 0x48,
  0x50, 0x81, 0x58, 0x80, 0x54, 0x40, 0x00, 0x80, 0x48, 0x40, 0x18, 0x90,
  0x56, 0x50, 0x00, 0x90, 0x4a, 0x50, 0x81, 0x58, 0x80, 0x56, 0x40, 0x81,
  0x58, 0x80, 0x4a, 0x40, 0x30, 0x90, 0x56, 0x50, 0x00, 0x90, 0x4a, 0x50,
  0x81, 0x58, 0x80, 0x56, 0x40, 0x00, 0x80, 0x4a, 0x40, 0x18, 0x90, 0x59,
  0x50, 0x00, 0x90, 0x4d, 0x50, 0x81, 0x16, 0x90, 0x4f, 0x50, 0x16, 0x90,
  0x52, 0x50, 0x17, 0x90, 0x56, 0x50, 0x15, 0x80, 0x59, 0x40, 0x00, 0x80,
  0x4d, 0x40, 0x01, 0x90, 0x5b, 0x50, 0x81, 0x58, 0x80, 0x5b, 0x40, 0x82,
  0x6d, 0x80, 0x4f, 0x40, 0x16, 0x80, 0x52, 0x40, 0x17, 0x80, 0x56, 0x40,
  0x75, 0x90, 0x59, 0x50, 0x00, 0x90, 0x4d, 0x50, 0x81, 0x58, 0x80, 0x59,
  0x40, 0x00, 0x80, 0x4d, 0x40, 0x18, 0x90, 0x5b, 0x50, 0x00, 0x90, 0x4f,
  0x50, 0x81, 0x58, 0x80, 0x5b, 0x40, 0x00, 0x80, 0x4f, 0x40, 0x18, 0x90,
  0x5e, 0x50, 0x00, 0x90, 0x52, 0x50, 0x81, 0x58, 0x80, 0x5e, 0x40, 0x00,
  0x80, 0x52, 0x40, 0x18, 0x90, 0x5d, 0x50, 0x00, 0x90, 0x51, 0x50, 0x81,
  0x58, 0x80, 0x5d, 0x40, 0x00, 0x80, 0x51, 0x40, 0x18, 0x90, 0x59, 0x50,
  0x00, 0x90, 0x4d, 0x50, 0x81, 0x58, 0x80, 0x59, 0x40, 0x00, 0x80, 0x4d,
  0x40, 0x18, 0x90, 0x56, 0x50, 0x00, 0x90, 0x4a, 0x50, 0x8a, 0x10, 0x80,
  0x56, 0x40, 0x00, 0x80, 0x4a, 0x40, 0x83, 0x00, 0x90, 0x4a, 0x50, 0x00,
  0x90, 0x56, 0x50, 0x6c, 0x80, 0x4a, 0x40, 0x00, 0x80, 0x56, 0x40, 0x0c,
  0x90, 0x4d, 0x50, 0x00, 0x90, 0x59, 0x50, 0x6c, 0x80, 0x4d, 0x40, 0x00,
  0x80, 0x59, 0x40, 0x0c, 0x90, 0x5b, 0x50, 0x00, 0x90, 0x4f, 0x50, 0x81,
  0x58, 0x80, 0x5b, 0x40, 0x83, 0x30, 0x80, 0x4f, 0x40, 0x48, 0x90, 0x59,
  0x50, 0x00, 0x90, 0x4d, 0x50, 0x81, 0x58, 0x80, 0x59, 0x40, 0x00, 0x80,
  0x4d, 0x40, 0x18, 0x90, 0x5b, 0x50, 0x00, 0x90, 0x4f, 0x50, 0x81, 0x58,
  0x80, 0x5b, 0x40, 0x81, 0x58, 0x80, 0x4f, 0x40, 0x30, 0x90, 0x5d, 0x50,
  0x00, 0x90, 0x51, 0x50, 0x81, 0x58, 0x80, 0x5d, 0x40, 0x00, 0x80, 0x51,
  0x40, 0x18, 0x90, 0x59, 0x50, 0x00, 0x90, 0x4d, 0x50, 0x81, 0x58, 0x80,
  0x59, 0x40, 0x00, 0x80, 0x4d, 0x40, 0x18, 0x90, 0x5b, 0x50, 0x00, 0x90,
  0x4f, 0x50, 0x81, 0x58, 0x80, 0x5b, 0x40, 0x81, 0x58, 0x80, 0x4f, 0x40,
  0x30, 0x90, 0x59, 0x50, 0x00, 0x90, 0x4d, 0x50, 0x81, 0x58, 0x80, 0x59,
  0x40, 0x00, 0x80, 0x4d, 0x40, 0x18, 0x90, 0x54, 0x50, 0x00, 0x90, 0x48,
  0x50, 0x81, 0x58, 0x80, 0x54, 0x40, 0x00, 0x80, 0x48, 0x40, 0x18, 0x90,
  0x56, 0x50, 0x00, 0x90, 0x4a, 0x50, 0x81, 0x58, 0x80, 0x56, 0x40, 0x81,
  0x58, 0x80, 0x4a, 0x40, 0x30, 0x90, 0x56, 0x50, 0x00, 0x90, 0x4a, 0x50,
  0x81, 0x58, 0x80, 0x56, 0x40, 0x00, 0x80, 0x4a, 0x40, 0x18, 0x90, 0x54,
  0x50, 0x00, 0x90, 0x48, 0x50, 0x81, 0x58, 0x80, 0x54, 0x40, 0x00, 0x80,
  0x48, 0x40, 0x18, 0x90, 0x43, 0x50, 0x00, 0x90, 0x4f, 0x50, 0x81, 0x58,
  0x80, 0x4f, 0x40, 0x81, 0x58, 0x80, 0x43, 0x40, 0x30, 0x90, 0x56, 0x50,
  0x00, 0x90, 0x4a, 0x50, 0x81, 0x58, 0x80, 0x56, 0x40, 0x00, 0x80, 0x4a,
  0x40, 0x18, 0x90, 0x54, 0x50, 0x00, 0x90, 0x48, 0x50, 0x81, 0x58, 0x80,
  0x54, 0x40, 0x00, 0x80, 0x48, 0x40, 0x18, 0x90, 0x43, 0x50, 0x00, 0x90,
  0x4f, 0x50, 0x81, 0x58, 0x80, 0x4f, 0x40, 0x81, 0x58, 0x80, 0x43, 0x40,
  0x30, 0x90, 0x41, 0x50, 0x00, 0x90, 0x4d, 0x50, 0x81, 0x58, 0x80, 0x4d,
  0x40, 0x81, 0x58, 0x80, 0x41, 0x40, 0x30, 0x90, 0x43, 0x50, 0x00, 0x90,
  0x4f, 0x50, 0x83, 0x30, 0x80, 0x43, 0x40, 0x00, 0x80, 0x4f, 0x40, 0x30,
  0x90, 0x3e, 0x50, 0x36, 0x80, 0x3e, 0x40, 0x06, 0x90, 0x43, 0x50, 0x36,
  0x80, 0x43, 0x40, 0x06, 0x90, 0x46, 0x50, 0x36, 0x80, 0x46, 0x40, 0x06,
  0x90, 0x4a, 0x50, 0x36, 0x80, 0x4a, 0x40, 0x06, 0x90, 0x4f, 0x50, 0x36,
  0x80, 0x4f, 0x40, 0x06, 0x90, 0x52, 0x50, 0x36, 0x80, 0x52, 0x40, 0x06,
  0x90, 0x56, 0x50, 0x36, 0x80, 0x56, 0x40, 0x06, 0x90, 0x5b, 0x50, 0x83,
  0x30, 0x80, 0x5b, 0x40, 0x12, 0x90, 0x56, 0x50, 0x2d, 0x90, 0x4a, 0x50,
  0x81, 0x2b, 0x80, 0x56, 0x40, 0x18, 0x90, 0x54, 0x50, 0x15, 0x80, 0x4a,
  0x40, 0x18, 0x90, 0x48, 0x50, 0x81, 0x2b, 0x80, 0x54, 0x40, 0x2d, 0x80,
  0x48, 0x40, 0x45, 0x90, 0x43, 0x50, 0x00, 0x90, 0x4f, 0x50, 0x81, 0x58,
  0x80, 0x4f, 0x40, 0x81, 0x2e, 0x90, 0x56, 0x50, 0x2a, 0x80, 0x43, 0x40,
  0x03, 0x90, 0x4a, 0x50, 0x81, 0x2b, 0x80, 0x56, 0x40, 0x18, 0x90, 0x54,
  0x50, 0x15, 0x80, 0x4a, 0x40, 0x18, 0x90, 0x48, 0x50, 0x81, 0x2b, 0x80,
  0x54, 0x40, 0x2d, 0x80, 0x48, 0x40, 0x45, 0x90, 0x43, 0x50, 0x00, 0x90,
  0x4f, 0x50, 0x81, 0x58, 0x80, 0x4f, 0x40, 0x81, 0x58, 0x80, 0x43, 0x40,
  0x30, 0x90, 0x35, 0x50, 0x00, 0x90, 0x41, 0x50, 0x83, 0x30, 0x80, 0x35,
  0x40, 0x00, 0x80, 0x41, 0x40, 0x30, 0x90, 0x37, 0x50, 0x00, 0x90, 0x43,
  0x50, 0x8a, 0x10, 0x80, 0x37, 0x40, 0x00, 0x80, 0x43, 0x40, 0x81, 0x10,
  0x90, 0x43, 0x50, 0x83, 0x06, 0x90, 0x3f, 0x50, 0x16, 0x90, 0x43, 0x50,
  0x14, 0x80, 0x43, 0x40, 0x03, 0x90, 0x48, 0x50, 0x16, 0x90, 0x4a, 0x50,
  0x86, 0x1d, 0x80, 0x3f, 0x40, 0x16, 0x80, 0x43, 0x40, 0x17, 0x80, 0x48,
  0x40, 0x16, 0x80, 0x4a, 0x40, 0x77, 0x90, 0x48, 0x50, 0x0a, 0xb0, 0x05,
  0x78, 0x82, 0x7c, 0x90, 0x4a, 0x50, 0x16, 0x90, 0x46, 0x50, 0x14, 0x80,
  0x48, 0x40, 0x03, 0x90, 0x45, 0x50, 0x16, 0x90, 0x41, 0x50, 0x86, 0x1d,
  0x80, 0x4a, 0x40, 0x16, 0x80, 0x46, 0x40, 0x17, 0x80, 0x45, 0x40, 0x16,
  0x80, 0x41, 0x40, 0xa6, 0x37, 0xff, 0x2f, 0x00, 0x4d, 0x54, 0x72, 0x6b,
  0x00, 0x00, 0x06, 0xa5, 0x00, 0xff, 0x03, 0x07, 0x54, 0x72, 0x61, 0x63,
  0x6b, 0x20, 0x32, 0x00, 0xff, 0x04, 0x1b, 0x4d, 0x69, 0x63, 0x72, 0x6f,
  0x73, 0x6f, 0x66, 0x74, 0x20, 0x47, 0x53, 0x20, 0xb2, 0xa8, 0xb1, 0xed,
  0xc8, 0xed, 0xbc, 0xfe, 0xba, 0xcf, 0xb3, 0xc9, 0xc6, 0xf7, 0x00, 0xff,
  0x59, 0x02, 0xfe, 0x00, 0x00, 0xc0, 0x00, 0x00, 0xb0, 0x0a, 0x40, 0x00,
  0xb0, 0x40, 0x78, 0xfb, 0x60, 0x90, 0x37, 0x50, 0x81, 0x58, 0x80, 0x37,
  0x40, 0x18, 0x90, 0x3e, 0x50, 0x81, 0x58, 0x80, 0x3e, 0x40, 0x18, 0x90,
  0x43, 0x50, 0x81, 0x58, 0x80, 0x43, 0x40, 0x18, 0x90, 0x45, 0x50, 0x81,
  0x58, 0x80, 0x45, 0x40, 0x18, 0x90, 0x46, 0x50, 0x83, 0x30, 0x80, 0x46,
  0x40, 0x84, 0x10, 0x90, 0x33, 0x50, 0x81, 0x58, 0x80, 0x33, 0x40, 0x18,
  0x90, 0x3a, 0x50, 0x81, 0x58, 0x80, 0x3a, 0x40, 0x18, 0x90, 0x3f, 0x50,
  0x83, 0x30, 0x80, 0x3f, 0x40, 0x30, 0x90, 0x35, 0x50, 0x81, 0x58, 0x80,
  0x35, 0x40, 0x18, 0x90, 0x3c, 0x50, 0x81, 0x58, 0x80, 0x3c, 0x40, 0x18,
  0x90, 0x41, 0x50, 0x83, 0x30, 0x80, 0x41, 0x40, 0x30, 0x90, 0x37, 0x50,
  0x81, 0x58, 0x80, 0x37, 0x40, 0x18, 0x90, 0x3e, 0x50, 0x81, 0x58, 0x80,
  0x3e, 0x40, 0x18, 0x90, 0x43, 0x50, 0x83, 0x30, 0x80, 0x43, 0x40, 0x30,
  0x90, 0x35, 0x50, 0x81, 0x58, 0x80, 0x35, 0x40, 0x18, 0x90, 0x3c, 0x50,
  0x81, 0x58, 0x80, 0x3c, 0x40, 0x18, 0x90, 0x41, 0x50, 0x83, 0x30, 0x80,
  0x41, 0x40, 0x30, 0x90, 0x33, 0x50, 0x81, 0x58, 0x80, 0x33, 0x40, 0x18,
  0x90, 0x3a, 0x50, 0x81, 0x58, 0x80, 0x3a, 0x40, 0x18, 0x90, 0x3f, 0x50,
  0x83, 0x30, 0x80, 0x3f, 0x40, 0x30, 0x90, 0x35, 0x50, 0x81, 0x58, 0x80,
  0x35, 0x40, 0x18, 0x90, 0x3c, 0x50, 0x81, 0x58, 0x80, 0x3c, 0x40, 0x18,
  0x90, 0x41, 0x50, 0x83, 0x30, 0x80, 0x41, 0x40, 0x30, 0x90, 0x37, 0x50,
  0x81, 0x58, 0x80, 0x37, 0x40, 0x18, 0x90, 0x3e, 0x50, 0x81, 0x58, 0x80,
  0x3e, 0x40, 0x18, 0x90, 0x43, 0x50, 0x81, 0x58, 0x80, 0x43, 0x40, 0x18,
  0x90, 0x45, 0x50, 0x81, 0x58, 0x80, 0x45, 0x40, 0x18, 0x90, 0x46, 0x50,
  0x83, 0x30, 0x80, 0x46, 0x40, 0x84, 0x10, 0x90, 0x27, 0x50, 0x81, 0x58,
  0x80, 0x27, 0x40, 0x18, 0x90, 0x2e, 0x50, 0x81, 0x58, 0x80, 0x2e, 0x40,
  0x18, 0x90, 0x33, 0x50, 0x83, 0x30, 0x80, 0x33, 0x40, 0x30, 0x90, 0x29,
  0x50, 0x81, 0x58, 0x80, 0x29, 0x40, 0x18, 0x90, 0x30, 0x50, 0x81, 0x58,
  0x80, 0x30, 0x40, 0x18, 0x90, 0x35, 0x50, 0x83, 0x30, 0x80, 0x35, 0x40,
  0x30, 0x90, 0x2b, 0x50, 0x81, 0x58, 0x80, 0x2b, 0x40, 0x18, 0x90, 0x32,
  0x50, 0x81, 0x58, 0x80, 0x32, 0x40, 0x83, 0x78, 0x90, 0x29, 0x50, 0x81,
  0x58, 0x80, 0x29, 0x40, 0x18, 0x90, 0x30, 0x50, 0x81, 0x58, 0x80, 0x30,
  0x40, 0x18, 0x90, 0x35, 0x50, 0x83, 0x30, 0x80, 0x35, 0x40, 0x30, 0x90,
  0x27, 0x50, 0x81, 0x58, 0x80, 0x27, 0x40, 0x18, 0x90, 0x2e, 0x50, 0x81,
  0x58, 0x80, 0x2e, 0x40, 0x18, 0x90, 0x33, 0x50, 0x83, 0x30, 0x80, 0x33,
  0x40, 0x30, 0x90, 0x29, 0x50, 0x81, 0x58, 0x80, 0x29, 0x40, 0x18, 0x90,
  0x30, 0x50, 0x81, 0x58, 0x80, 0x30, 0x40, 0x18, 0x90, 0x35, 0x50, 0x83,
  0x30, 0x80, 0x35, 0x40, 0x30, 0x90, 0x2b, 0x50, 0x81, 0x58, 0x80, 0x2b,
  0x40, 0x18, 0x90, 0x32, 0x50, 0x81, 0x58, 0x80, 0x32, 0x40, 0x18, 0x90,
  0x3a, 0x50, 0x81, 0x58, 0x80, 0x3a, 0x40, 0x18, 0x90, 0x32, 0x50, 0x81,
  0x58, 0x80, 0x32, 0x40, 0x18, 0x90, 0x39, 0x50, 0x81, 0x58, 0x80, 0x39,
  0x40, 0x18, 0x90, 0x32, 0x50, 0x81, 0x58, 0x80, 0x32, 0x40, 0x83, 0x78,
  0x90, 0x27, 0x50, 0x81, 0x58, 0x80, 0x27, 0x40, 0x18, 0x90, 0x2e, 0x50,
  0x81, 0x58, 0x80, 0x2e, 0x40, 0x18, 0x90, 0x33, 0x50, 0x83, 0x30, 0x80,
  0x33, 0x40, 0x30, 0x90, 0x29, 0x50, 0x81, 0x58, 0x80, 0x29, 0x40, 0x18,
  0x90, 0x30, 0x50, 0x81, 0x58, 0x80, 0x30, 0x40, 0x18, 0x90, 0x35, 0x50,
  0x83, 0x30, 0x80, 0x35, 0x40, 0x30, 0x90, 0x2b, 0x50, 0x81, 0x58, 0x80,
  0x2b, 0x40, 0x18, 0x90, 0x32, 0x50, 0x81, 0x58, 0x80, 0x32, 0x40, 0x18,
  0x90, 0x37, 0x50, 0x83, 0x30, 0x80, 0x37, 0x40, 0x30, 0x90, 0x29, 0x50,
  0x81, 0x58, 0x80, 0x29, 0x40, 0x18, 0x90, 0x30, 0x50, 0x81, 0x58, 0x80,
  0x30, 0x40, 0x18, 0x90, 0x35, 0x50, 0x83, 0x30, 0x80, 0x35, 0x40, 0x30,
  0x90, 0x27, 0x50, 0x81, 0x58, 0x80, 0x27, 0x40, 0x18, 0x90, 0x2e, 0x50,
  0x81, 0x58, 0x80, 0x2e, 0x40, 0x18, 0x90, 0x33, 0x50, 0x83, 0x30, 0x80,
  0x33, 0x40, 0x30, 0x90, 0x29, 0x50, 0x81, 0x58, 0x80, 0x29, 0x40, 0x18,
  0x90, 0x30, 0x50, 0x81, 0x58, 0x80, 0x30, 0x40, 0x18, 0x90, 0x39, 0x50,
  0x00, 0x90, 0x35, 0x50, 0x83, 0x30, 0x80, 0x39, 0x40, 0x00, 0x80, 0x35,
  0x40, 0x30, 0x90, 0x2b, 0x50, 0x00, 0x90, 0x37, 0x50, 0x81, 0x58, 0x80,
  0x2b, 0x40, 0x00, 0x80, 0x37, 0x40, 0x18, 0x90, 0x32, 0x50, 0x81, 0x58,
  0x80, 0x32, 0x40, 0x18, 0x90, 0x37, 0x50, 0x81, 0x58, 0x80, 0x37, 0x40,
  0x18, 0x90, 0x39, 0x50, 0x81, 0x58, 0x80, 0x39, 0x40, 0x18, 0x90, 0x3a,
  0x50, 0x83, 0x30, 0x80, 0x3a, 0x40, 0x84, 0x10, 0x90, 0x27, 0x50, 0x81,
  0x22, 0x80, 0x27, 0x40, 0x12, 0x90, 0x2e, 0x50, 0x36, 0x80, 0x2e, 0x40,
  0x06, 0x90, 0x33, 0x50, 0x36, 0x80, 0x33, 0x40, 0x06, 0x90, 0x37, 0x50,
  0x36, 0x80, 0x37, 0x40, 0x06, 0x90, 0x3a, 0x50, 0x36, 0x80, 0x3a, 0x40,
  0x06, 0x90, 0x3f, 0x50, 0x6c, 0x80, 0x3f, 0x40, 0x83, 0x30, 0x90, 0x29,
  0x50, 0x81, 0x22, 0x80, 0x29, 0x40, 0x12, 0x90, 0x30, 0x50, 0x36, 0x80,
  0x30, 0x40, 0x06, 0x90, 0x35, 0x50, 0x36, 0x80, 0x35, 0x40, 0x06, 0x90,
  0x39, 0x50, 0x36, 0x80, 0x39, 0x40, 0x06, 0x90, 0x3c, 0x50, 0x36, 0x80,
  0x3c, 0x40, 0x06, 0x90, 0x41, 0x50, 0x83, 0x6c, 0x80, 0x41, 0x40, 0x30,
  0x90, 0x2b, 0x50, 0x81, 0x22, 0x80, 0x2b, 0x40, 0x12, 0x90, 0x32, 0x50,
  0x36, 0x80, 0x32, 0x40, 0x06, 0x90, 0x37, 0x50, 0x36, 0x80, 0x37, 0x40,
  0x06, 0x90, 0x3a, 0x50, 0x36, 0x80, 0x3a, 0x40, 0x06, 0x90, 0x3e, 0x50,
  0x36, 0x80, 0x3e, 0x40, 0x06, 0x90, 0x41, 0x50, 0x6c, 0x80, 0x41, 0x40,
  0x83, 0x30, 0x90, 0x29, 0x50, 0x81, 0x22, 0x80, 0x29, 0x40, 0x12, 0x90,
  0x30, 0x50, 0x36, 0x80, 0x30, 0x40, 0x06, 0x90, 0x35, 0x50, 0x36, 0x80,
  0x35, 0x40, 0x06, 0x90, 0x39, 0x50, 0x36, 0x80, 0x39, 0x40, 0x06, 0x90,
  0x3c, 0x50, 0x36, 0x80, 0x3c, 0x40, 0x06, 0x90, 0x41, 0x50, 0x83, 0x6c,
  0x80, 0x41, 0x40, 0x30, 0x90, 0x27, 0x50, 0x81, 0x22, 0x80, 0x27, 0x40,
  0x12, 0x90, 0x2e, 0x50, 0x36, 0x80, 0x2e, 0x40, 0x06, 0x90, 0x33, 0x50,
  0x36, 0x80, 0x33, 0x40, 0x06, 0x90, 0x37, 0x50, 0x36, 0x80, 0x37, 0x40,
  0x06, 0x90, 0x3a, 0x50, 0x36, 0x80, 0x3a, 0x40, 0x06, 0x90, 0x3f, 0x50,
  0x6c, 0x80, 0x3f, 0x40, 0x83, 0x30, 0x90, 0x29, 0x50, 0x81, 0x22, 0x80,
  0x29, 0x40, 0x12, 0x90, 0x30, 0x50, 0x36, 0x80, 0x30, 0x40, 0x06, 0x90,
  0x35, 0x50, 0x36, 0x80, 0x35, 0x40, 0x06, 0x90, 0x39, 0x50, 0x36, 0x80,
  0x39, 0x40, 0x06, 0x90, 0x3c, 0x50, 0x36, 0x80, 0x3c, 0x40, 0x06, 0x90,
  0x41, 0x50, 0x83, 0x6c, 0x80, 0x41, 0x40, 0x30, 0x90, 0x2b, 0x50, 0x81,
  0x22, 0x80, 0x2b, 0x40, 0x12, 0x90, 0x32, 0x50, 0x36, 0x80, 0x32, 0x40,
  0x06, 0x90, 0x37, 0x50, 0x36, 0x80, 0x37, 0x40, 0x06, 0x90, 0x3a, 0x50,
  0x36, 0x80, 0x3a, 0x40, 0x06, 0x90, 0x3e, 0x50, 0x36, 0x80, 0x3e, 0x40,
  0x06, 0x90, 0x43, 0x50, 0x6c, 0x80, 0x43, 0x40, 0x83, 0x30, 0x90, 0x29,
  0x50, 0x81, 0x22, 0x80, 0x29, 0x40, 0x12, 0x90, 0x30, 0x50, 0x36, 0x80,
  0x30, 0x40, 0x06, 0x90, 0x35, 0x50, 0x36, 0x80, 0x35, 0x40, 0x06, 0x90,
  0x39, 0x50, 0x36, 0x80, 0x39, 0x40, 0x06, 0x90, 0x3c, 0x50, 0x36, 0x80,
  0x3c, 0x40, 0x06, 0x90, 0x41, 0x50, 0x36, 0x80, 0x41, 0x40, 0x83, 0x66,
  0x90, 0x27, 0x50, 0x81, 0x22, 0x80, 0x27, 0x40, 0x12, 0x90, 0x2e, 0x50,
  0x36, 0x80, 0x2e, 0x40, 0x06, 0x90, 0x33, 0x50, 0x36, 0x80, 0x33, 0x40,
  0x06, 0x90, 0x37, 0x50, 0x36, 0x80, 0x37, 0x40, 0x06, 0x90, 0x3a, 0x50,
  0x36, 0x80, 0x3a, 0x40, 0x06, 0x90, 0x3f, 0x50, 0x6c, 0x80, 0x3f, 0x40,
  0x83, 0x30, 0x90, 0x29, 0x50, 0x81, 0x22, 0x80, 0x29, 0x40, 0x12, 0x90,
  0x30, 0x50, 0x36, 0x80, 0x30, 0x40, 0x06, 0x90, 0x35, 0x50, 0x36, 0x80,
  0x35, 0x40, 0x06, 0x90, 0x39, 0x50, 0x36, 0x80, 0x39, 0x40, 0x06, 0x90,
  0x3c, 0x50, 0x36, 0x80, 0x3c, 0x40, 0x06, 0x90, 0x41, 0x50, 0x83, 0x6c,
  0x80, 0x41, 0x40, 0x30, 0x90, 0x2b, 0x50, 0x81, 0x22, 0x80, 0x2b, 0x40,
  0x12, 0x90, 0x32, 0x50, 0x36, 0x80, 0x32, 0x40, 0x06, 0x90, 0x37, 0x50,
  0x36, 0x80, 0x37, 0x40, 0x06, 0x90, 0x3a, 0x50, 0x36, 0x80, 0x3a, 0x40,
  0x06, 0x90, 0x3e, 0x50, 0x36, 0x80, 0x3e, 0x40, 0x06, 0x90, 0x41, 0x50,
  0x6c, 0x80, 0x41, 0x40, 0x83, 0x30, 0x90, 0x29, 0x50, 0x81, 0x22, 0x80,
  0x29, 0x40, 0x12, 0x90, 0x30, 0x50, 0x36, 0x80, 0x30, 0x40, 0x06, 0x90,
  0x35, 0x50, 0x36, 0x80, 0x35, 0x40, 0x06, 0x90, 0x39, 0x50, 0x36, 0x80,
  0x39, 0x40, 0x06, 0x90, 0x3c, 0x50, 0x36, 0x80, 0x3c, 0x40, 0x06, 0x90,
  0x41, 0x50, 0x36, 0x80, 0x41, 0x40, 0x06, 0x90, 0x41, 0x50, 0x83, 0x30,
  0x80, 0x41, 0x40, 0x30, 0x90, 0x27, 0x50, 0x81, 0x22, 0x80, 0x27, 0x40,
  0x12, 0x90, 0x2e, 0x50, 0x36, 0x80, 0x2e, 0x40, 0x06, 0x90, 0x33, 0x50,
  0x36, 0x80, 0x33, 0x40, 0x06, 0x90, 0x37, 0x50, 0x36, 0x80, 0x37, 0x40,
  0x06, 0x90, 0x3a, 0x50, 0x36, 0x80, 0x3a, 0x40, 0x06, 0x90, 0x3f, 0x50,
  0x6c, 0x80, 0x3f, 0x40, 0x83, 0x30, 0x90, 0x29, 0x50, 0x81, 0x22, 0x80,
  0x29, 0x40, 0x12, 0x90, 0x30, 0x50, 0x36, 0x80, 0x30, 0x40, 0x06, 0x90,
  0x35, 0x50, 0x36, 0x80, 0x35, 0x40, 0x06, 0x90, 0x39, 0x50, 0x36, 0x80,
  0x39, 0x40, 0x06, 0x90, 0x3c, 0x50, 0x36, 0x80, 0x3c, 0x40, 0x06, 0x90,
  0x41, 0x50, 0x36, 0x80, 0x41, 0x40, 0x06, 0x90, 0x41, 0x50, 0x83, 0x30,
  0x80, 0x41, 0x40, 0x30, 0x90, 0x37, 0x50, 0x81, 0x22, 0x80, 0x37, 0x40,
  0x12, 0x90, 0x3e, 0x50, 0x36, 0x80, 0x3e, 0x40, 0x06, 0x90, 0x43, 0x50,
  0x36, 0x80, 0x43, 0x40, 0x06, 0x90, 0x46, 0x50, 0x36, 0x80, 0x46, 0x40,
  0x06, 0x90, 0x4a, 0x50, 0x36, 0x80, 0x4a, 0x40, 0x06, 0x90, 0x4f, 0x50,
  0x36, 0x80, 0x4f, 0x40, 0x8b, 0x26, 0x90, 0x33, 0x50, 0x81, 0x58, 0x80,
  0x33, 0x40, 0x18, 0x90, 0x3a, 0x50, 0x81, 0x58, 0x80, 0x3a, 0x40, 0x18,
  0x90, 0x3f, 0x50, 0x83, 0x30, 0x80, 0x3f, 0x40, 0x30, 0x90, 0x35, 0x50,
  0x81, 0x58, 0x80, 0x35, 0x40, 0x18, 0x90, 0x3c, 0x50, 0x81, 0x58, 0x80,
  0x3c, 0x40, 0x83, 0x78, 0x90, 0x37, 0x50, 0x81, 0x58, 0x80, 0x37, 0x40,
  0x18, 0x90, 0x3e, 0x50, 0x81, 0x58, 0x80, 0x3e, 0x40, 0x18, 0x90, 0x43,
  0x50, 0x81, 0x58, 0x80, 0x43, 0x40, 0x18, 0x90, 0x45, 0x50, 0x81, 0x58,
  0x80, 0x45, 0x40, 0x18, 0x90, 0x47, 0x50, 0x83, 0x30, 0x80, 0x47, 0x40,
  0x84, 0x10, 0x90, 0x35, 0x50, 0x81, 0x58, 0x80, 0x35, 0x40, 0x18, 0x90,
  0x3c, 0x50, 0x81, 0x58, 0x80, 0x3c, 0x40, 0x18, 0x90, 0x41, 0x50, 0x81,
  0x58, 0x80, 0x41, 0x40, 0x18, 0x90, 0x43, 0x50, 0x81, 0x58, 0x80, 0x43,
  0x40, 0x18, 0x90, 0x45, 0x50, 0x81, 0x58, 0x80, 0x45, 0x40, 0x82, 0x08,
  0x90, 0x37, 0x50, 0x81, 0x58, 0x80, 0x37, 0x40, 0x18, 0x90, 0x3e, 0x50,
  0x81, 0x58, 0x80, 0x3e, 0x40, 0x18, 0x90, 0x43, 0x50, 0x81, 0x58, 0x80,
  0x43, 0x40, 0x18, 0x90, 0x45, 0x50, 0x81, 0x58, 0x80, 0x45, 0x40, 0x18,
  0x90, 0x47, 0x50, 0x83, 0x30, 0x80, 0x47, 0x40, 0xa2, 0x10, 0xff, 0x2f,
  0x00
};
unsigned int quanyecha_mid_len = 4261;
