unsigned char SuperMario_mid[] = {
  0x4d, 0x54, 0x68, 0x64, 0x00, 0x00, 0x00, 0x06, 0x00, 0x01, 0x00, 0x04,
  0x00, 0x30, 0x4d, 0x54, 0x72, 0x6b, 0x00, 0x00, 0x00, 0x42, 0x00, 0xff,
  0x03, 0x08, 0xb3, 0xac, 0xbc, 0xb6, 0xc2, 0xed, 0xc0, 0xfb, 0x00, 0xff,
  0x01, 0x11, 0x50, 0x73, 0x6d, 0x50, 0x6c, 0x61, 0x79, 0x65, 0x72, 0x20,
  0x56, 0x33, 0x2e, 0x38, 0x32, 0x63, 0x0a, 0x00, 0xf0, 0x05, 0x7e, 0x7f,
  0x09, 0x01, 0xf7, 0x00, 0xff, 0x58, 0x04, 0x04, 0x02, 0x18, 0x08, 0x00,
  0xff, 0x59, 0x02, 0x00, 0x00, 0x00, 0xff, 0x51, 0x03, 0x07, 0x53, 0x00,
  0x00, 0xff, 0x2f, 0x00, 0x4d, 0x54, 0x72, 0x6b, 0x00, 0x00, 0x07, 0x16,
  0x32, 0xc0, 0x41, 0x01, 0xb0, 0x07, 0x7f, 0x81, 0x0d, 0x90, 0x4c, 0x7f,
  0x08, 0x4c, 0x00, 0x06, 0x4c, 0x7f, 0x08, 0x4c, 0x00, 0x14, 0x4c, 0x7f,
  0x08, 0x4c, 0x00, 0x16, 0x48, 0x7f, 0x08, 0x48, 0x00, 0x06, 0x4c, 0x7f,
  0x08, 0x4c, 0x00, 0x14, 0x4f, 0x7f, 0x08, 0x4f, 0x00, 0x6c, 0x48, 0x7f,
  0x08, 0x48, 0x00, 0x24, 0x43, 0x7f, 0x08, 0x43, 0x00, 0x22, 0x40, 0x7f,
  0x08, 0x40, 0x00, 0x24, 0x45, 0x7f, 0x08, 0x45, 0x00, 0x14, 0x47, 0x7f,
  0x08, 0x47, 0x00, 0x16, 0x46, 0x7f, 0x08, 0x46, 0x00, 0x06, 0x45, 0x7f,
  0x08, 0x45, 0x00, 0x14, 0x43, 0x7f, 0x08, 0x43, 0x00, 0x0c, 0x4c, 0x7f,
  0x08, 0x4c, 0x00, 0x0c, 0x4f, 0x7f, 0x08, 0x4f, 0x00, 0x0a, 0x51, 0x7f,
  0x08, 0x51, 0x00, 0x16, 0x4d, 0x7f, 0x08, 0x4d, 0x00, 0x06, 0x4f, 0x7f,
  0x08, 0x4f, 0x00, 0x14, 0x4c, 0x7f, 0x08, 0x4c, 0x00, 0x16, 0x48, 0x7f,
  0x0a, 0x48, 0x00, 0x04, 0x4a, 0x7f, 0x08, 0x4a, 0x00, 0x06, 0x47, 0x7f,
  0x08, 0x47, 0x00, 0x24, 0x48, 0x7f, 0x08, 0x48, 0x00, 0x22, 0x43, 0x7f,
  0x08, 0x43, 0x00, 0x24, 0x40, 0x7f, 0x08, 0x40, 0x00, 0x24, 0x45, 0x7f,
  0x08, 0x45, 0x00, 0x14, 0x47, 0x7f, 0x08, 0x47, 0x00, 0x16, 0x46, 0x7f,
  0x08, 0x46, 0x00, 0x06, 0x45, 0x7f, 0x08, 0x45, 0x00, 0x14, 0x43, 0x7f,
  0x08, 0x43, 0x00, 0x0c, 0x4c, 0x7f, 0x08, 0x4c, 0x00, 0x0a, 0x4f, 0x7f,
  0x08, 0x4f, 0x00, 0x0c, 0x51, 0x7f, 0x08, 0x51, 0x00, 0x14, 0x4d, 0x7f,
  0x08, 0x4d, 0x00, 0x08, 0x4f, 0x7f, 0x08, 0x4f, 0x00, 0x14, 0x4c, 0x7f,
  0x08, 0x4c, 0x00, 0x14, 0x48, 0x7f, 0x08, 0x48, 0x00, 0x08, 0x4a, 0x7f,
  0x08, 0x4a, 0x00, 0x06, 0x47, 0x7f, 0x08, 0x47, 0x00, 0x40, 0x4f, 0x7f,
  0x08, 0x4f, 0x00, 0x06, 0x4e, 0x7f, 0x08, 0x4e, 0x00, 0x06, 0x4d, 0x7f,
  0x08, 0x4d, 0x00, 0x08, 0x4b, 0x7f, 0x08, 0x4b, 0x00, 0x14, 0x4c, 0x7f,
  0x08, 0x4c, 0x00, 0x14, 0x44, 0x7f, 0x08, 0x44, 0x00, 0x08, 0x45, 0x7f,
  0x08, 0x45, 0x00, 0x06, 0x48, 0x7f, 0x08, 0x48, 0x00, 0x14, 0x45, 0x7f,
  0x08, 0x45, 0x00, 0x06, 0x48, 0x7f, 0x08, 0x48, 0x00, 0x08, 0x4a, 0x7f,
  0x0a, 0x4a, 0x00, 0x20, 0x4f, 0x7f, 0x08, 0x4f, 0x00, 0x08, 0x4e, 0x7f,
  0x08, 0x4e, 0x00, 0x06, 0x4d, 0x7f, 0x08, 0x4d, 0x00, 0x06, 0x4b, 0x7f,
  0x08, 0x4b, 0x00, 0x14, 0x4c, 0x7f, 0x08, 0x4c, 0x00, 0x16, 0x54, 0x7f,
  0x08, 0x54, 0x00, 0x14, 0x54, 0x7f, 0x08, 0x54, 0x00, 0x06, 0x54, 0x7f,
  0x08, 0x54, 0x00, 0x50, 0x4f, 0x7f, 0x08, 0x4f, 0x00, 0x06, 0x4e, 0x7f,
  0x08, 0x4e, 0x00, 0x06, 0x4d, 0x7f, 0x08, 0x4d, 0x00, 0x06, 0x4b, 0x7f,
  0x08, 0x4b, 0x00, 0x16, 0x4c, 0x7f, 0x08, 0x4c, 0x00, 0x14, 0x44, 0x7f,
  0x08, 0x44, 0x00, 0x06, 0x45, 0x7f, 0x08, 0x45, 0x00, 0x08, 0x48, 0x7f,
  0x08, 0x48, 0x00, 0x14, 0x45, 0x7f, 0x08, 0x45, 0x00, 0x06, 0x48, 0x7f,
  0x08, 0x48, 0x00, 0x06, 0x4a, 0x7f, 0x08, 0x4a, 0x00, 0x24, 0x4b, 0x7f,
  0x0a, 0x4b, 0x00, 0x22, 0x4a, 0x7f, 0x08, 0x4a, 0x00, 0x22, 0x48, 0x7f,
  0x08, 0x48, 0x00, 0x81, 0x08, 0x4f, 0x7f, 0x08, 0x4f, 0x00, 0x08, 0x4e,
  0x7f, 0x0a, 0x4e, 0x00, 0x04, 0x4d, 0x7f, 0x08, 0x4d, 0x00, 0x06, 0x4b,
  0x7f, 0x08, 0x4b, 0x00, 0x16, 0x4c, 0x7f, 0x08, 0x4c, 0x00, 0x14, 0x44,
  0x7f, 0x08, 0x44, 0x00, 0x06, 0x45, 0x7f, 0x08, 0x45, 0x00, 0x06, 0x48,
  0x7f, 0x08, 0x48, 0x00, 0x16, 0x45, 0x7f, 0x08, 0x45, 0x00, 0x06, 0x48,
  0x7f, 0x08, 0x48, 0x00, 0x06, 0x4a, 0x7f, 0x08, 0x4a, 0x00, 0x24, 0x4f,
  0x7f, 0x08, 0x4f, 0x00, 0x06, 0x4e, 0x7f, 0x08, 0x4e, 0x00, 0x06, 0x4d,
  0x7f, 0x08, 0x4d, 0x00, 0x08, 0x4b, 0x7f, 0x08, 0x4b, 0x00, 0x14, 0x4c,
  0x7f, 0x08, 0x4c, 0x00, 0x14, 0x54, 0x7f, 0x08, 0x54, 0x00, 0x16, 0x54,
  0x7f, 0x08, 0x54, 0x00, 0x06, 0x54, 0x7f, 0x08, 0x54, 0x00, 0x4e, 0x4f,
  0x7f, 0x08, 0x4f, 0x00, 0x06, 0x4e, 0x7f, 0x08, 0x4e, 0x00, 0x08, 0x4d,
  0x7f, 0x08, 0x4d, 0x00, 0x06, 0x4b, 0x7f, 0x08, 0x4b, 0x00, 0x14, 0x4c,
  0x7f, 0x08, 0x4c, 0x00, 0x16, 0x44, 0x7f, 0x08, 0x44, 0x00, 0x06, 0x45,
  0x7f, 0x08, 0x45, 0x00, 0x06, 0x48, 0x7f, 0x08, 0x48, 0x00, 0x16, 0x45,
  0x7f, 0x08, 0x45, 0x00, 0x06, 0x48, 0x7f, 0x08, 0x48, 0x00, 0x06, 0x4a,
  0x7f, 0x08, 0x4a, 0x00, 0x24, 0x4b, 0x7f, 0x08, 0x4b, 0x00, 0x22, 0x4a,
  0x7f, 0x08, 0x4a, 0x00, 0x24, 0x48, 0x7f, 0x08, 0x48, 0x00, 0x6c, 0x48,
  0x7f, 0x08, 0x48, 0x00, 0x06, 0x48, 0x7f, 0x08, 0x48, 0x00, 0x14, 0x48,
  0x7f, 0x08, 0x48, 0x00, 0x16, 0x48, 0x7f, 0x08, 0x48, 0x00, 0x06, 0x4a,
  0x7f, 0x08, 0x4a, 0x00, 0x14, 0x4c, 0x7f, 0x08, 0x4c, 0x00, 0x08, 0x48,
  0x7f, 0x08, 0x48, 0x00, 0x14, 0x45, 0x7f, 0x08, 0x45, 0x00, 0x06, 0x43,
  0x7f, 0x08, 0x43, 0x00, 0x32, 0x48, 0x7f, 0x08, 0x48, 0x00, 0x06, 0x48,
  0x7f, 0x08, 0x48, 0x00, 0x16, 0x48, 0x7f, 0x08, 0x48, 0x00, 0x14, 0x48,
  0x7f, 0x08, 0x48, 0x00, 0x06, 0x4a, 0x7f, 0x08, 0x4a, 0x00, 0x06, 0x4c,
  0x7f, 0x08, 0x4c, 0x00, 0x7a, 0x48, 0x7f, 0x08, 0x48, 0x00, 0x08, 0x48,
  0x7f, 0x08, 0x48, 0x00, 0x14, 0x48, 0x7f, 0x08, 0x48, 0x00, 0x14, 0x48,
  0x7f, 0x08, 0x48, 0x00, 0x08, 0x4a, 0x7f, 0x08, 0x4a, 0x00, 0x14, 0x4c,
  0x7f, 0x08, 0x4c, 0x00, 0x06, 0x48, 0x7f, 0x08, 0x48, 0x00, 0x16, 0x45,
  0x7f, 0x0a, 0x45, 0x00, 0x04, 0x43, 0x7f, 0x08, 0x43, 0x00, 0x32, 0x4c,
  0x7f, 0x08, 0x4c, 0x00, 0x06, 0x4c, 0x7f, 0x08, 0x4c, 0x00, 0x14, 0x4c,
  0x7f, 0x08, 0x4c, 0x00, 0x16, 0x48, 0x7f, 0x08, 0x48, 0x00, 0x06, 0x4c,
  0x7f, 0x08, 0x4c, 0x00, 0x14, 0x4f, 0x7f, 0x08, 0x4f, 0x00, 0x6c, 0x48,
  0x7f, 0x08, 0x48, 0x00, 0x24, 0x43, 0x7f, 0x08, 0x43, 0x00, 0x22, 0x40,
  0x7f, 0x08, 0x40, 0x00, 0x24, 0x45, 0x7f, 0x08, 0x45, 0x00, 0x14, 0x47,
  0x7f, 0x08, 0x47, 0x00, 0x16, 0x46, 0x7f, 0x08, 0x46, 0x00, 0x06, 0x45,
  0x7f, 0x0a, 0x45, 0x00, 0x14, 0x43, 0x7f, 0x08, 0x43, 0x00, 0x0a, 0x4c,
  0x7f, 0x08, 0x4c, 0x00, 0x0c, 0x4f, 0x7f, 0x08, 0x4f, 0x00, 0x0a, 0x51,
  0x7f, 0x08, 0x51, 0x00, 0x16, 0x4d, 0x7f, 0x08, 0x4d, 0x00, 0x06, 0x4f,
  0x7f, 0x08, 0x4f, 0x00, 0x14, 0x4c, 0x7f, 0x08, 0x4c, 0x00, 0x16, 0x48,
  0x7f, 0x08, 0x48, 0x00, 0x06, 0x4a, 0x7f, 0x08, 0x4a, 0x00, 0x06, 0x47,
  0x7f, 0x08, 0x47, 0x00, 0x24, 0x48, 0x7f, 0x08, 0x48, 0x00, 0x24, 0x43,
  0x7f, 0x08, 0x43, 0x00, 0x22, 0x40, 0x7f, 0x08, 0x40, 0x00, 0x24, 0x45,
  0x7f, 0x08, 0x45, 0x00, 0x14, 0x47, 0x7f, 0x08, 0x47, 0x00, 0x16, 0x46,
  0x7f, 0x08, 0x46, 0x00, 0x06, 0x45, 0x7f, 0x08, 0x45, 0x00, 0x14, 0x43,
  0x7f, 0x08, 0x43, 0x00, 0x0c, 0x4c, 0x7f, 0x08, 0x4c, 0x00, 0x0c, 0x4f,
  0x7f, 0x08, 0x4f, 0x00, 0x0a, 0x51, 0x7f, 0x08, 0x51, 0x00, 0x16, 0x4d,
  0x7f, 0x08, 0x4d, 0x00, 0x06, 0x4f, 0x7f, 0x08, 0x4f, 0x00, 0x14, 0x4c,
  0x7f, 0x08, 0x4c, 0x00, 0x16, 0x48, 0x7f, 0x08, 0x48, 0x00, 0x06, 0x4a,
  0x7f, 0x08, 0x4a, 0x00, 0x06, 0x47, 0x7f, 0x08, 0x47, 0x00, 0x24, 0x4c,
  0x7f, 0x08, 0x4c, 0x00, 0x06, 0x48, 0x7f, 0x08, 0x48, 0x00, 0x14, 0x43,
  0x7f, 0x08, 0x43, 0x00, 0x24, 0x44, 0x7f, 0x08, 0x44, 0x00, 0x14, 0x45,
  0x7f, 0x08, 0x45, 0x00, 0x08, 0x4d, 0x7f, 0x08, 0x4d, 0x00, 0x14, 0x4d,
  0x7f, 0x08, 0x4d, 0x00, 0x06, 0x45, 0x7f, 0x08, 0x45, 0x00, 0x32, 0x47,
  0x7f, 0x08, 0x47, 0x00, 0x0c, 0x51, 0x7f, 0x08, 0x51, 0x00, 0x0a, 0x51,
  0x7f, 0x08, 0x51, 0x00, 0x0c, 0x51, 0x7f, 0x08, 0x51, 0x00, 0x0c, 0x4f,
  0x7f, 0x08, 0x4f, 0x00, 0x0a, 0x4d, 0x7f, 0x08, 0x4d, 0x00, 0x0c, 0x4c,
  0x7f, 0x08, 0x4c, 0x00, 0x06, 0x48, 0x7f, 0x08, 0x48, 0x00, 0x14, 0x45,
  0x7f, 0x08, 0x45, 0x00, 0x08, 0x43, 0x7f, 0x08, 0x43, 0x00, 0x30, 0x4c,
  0x7f, 0x08, 0x4c, 0x00, 0x08, 0x48, 0x7f, 0x08, 0x48, 0x00, 0x14, 0x43,
  0x7f, 0x08, 0x43, 0x00, 0x24, 0x44, 0x7f, 0x08, 0x44, 0x00, 0x14, 0x45,
  0x7f, 0x08, 0x45, 0x00, 0x06, 0x4d, 0x7f, 0x08, 0x4d, 0x00, 0x16, 0x4d,
  0x7f, 0x08, 0x4d, 0x00, 0x06, 0x45, 0x7f, 0x08, 0x45, 0x00, 0x32, 0x47,
  0x7f, 0x08, 0x47, 0x00, 0x06, 0x4d, 0x7f, 0x08, 0x4d, 0x00, 0x14, 0x4d,
  0x7f, 0x08, 0x4d, 0x00, 0x08, 0x4d, 0x7f, 0x08, 0x4d, 0x00, 0x0a, 0x4c,
  0x7f, 0x08, 0x4c, 0x00, 0x0c, 0x4a, 0x7f, 0x08, 0x4a, 0x00, 0x0c, 0x48,
  0x7f, 0x08, 0x48, 0x00, 0x6a, 0x4c, 0x7f, 0x08, 0x4c, 0x00, 0x06, 0x48,
  0x7f, 0x08, 0x48, 0x00, 0x16, 0x43, 0x7f, 0x08, 0x43, 0x00, 0x22, 0x44,
  0x7f, 0x08, 0x44, 0x00, 0x16, 0x45, 0x7f, 0x08, 0x45, 0x00, 0x06, 0x4d,
  0x7f, 0x08, 0x4d, 0x00, 0x16, 0x4d, 0x7f, 0x08, 0x4d, 0x00, 0x06, 0x45,
  0x7f, 0x08, 0x45, 0x00, 0x32, 0x47, 0x7f, 0x08, 0x47, 0x00, 0x0a, 0x51,
  0x7f, 0x08, 0x51, 0x00, 0x0c, 0x51, 0x7f, 0x08, 0x51, 0x00, 0x0a, 0x51,
  0x7f, 0x08, 0x51, 0x00, 0x0c, 0x4f, 0x7f, 0x08, 0x4f, 0x00, 0x0c, 0x4d,
  0x7f, 0x08, 0x4d, 0x00, 0x0a, 0x4c, 0x7f, 0x08, 0x4c, 0x00, 0x08, 0x48,
  0x7f, 0x08, 0x48, 0x00, 0x14, 0x45, 0x7f, 0x08, 0x45, 0x00, 0x06, 0x43,
  0x7f, 0x08, 0x43, 0x00, 0x32, 0x4c, 0x7f, 0x08, 0x4c, 0x00, 0x06, 0x48,
  0x7f, 0x08, 0x48, 0x00, 0x16, 0x43, 0x7f, 0x08, 0x43, 0x00, 0x22, 0x44,
  0x7f, 0x08, 0x44, 0x00, 0x16, 0x45, 0x7f, 0x08, 0x45, 0x00, 0x06, 0x4d,
  0x7f, 0x08, 0x4d, 0x00, 0x14, 0x4d, 0x7f, 0x08, 0x4d, 0x00, 0x08, 0x45,
  0x7f, 0x08, 0x45, 0x00, 0x30, 0x47, 0x7f, 0x08, 0x47, 0x00, 0x08, 0x4d,
  0x7f, 0x08, 0x4d, 0x00, 0x14, 0x4d, 0x7f, 0x08, 0x4d, 0x00, 0x06, 0x4d,
  0x7f, 0x08, 0x4d, 0x00, 0x0c, 0x4c, 0x7f, 0x08, 0x4c, 0x00, 0x0a, 0x4a,
  0x7f, 0x08, 0x4a, 0x00, 0x0c, 0x48, 0x7f, 0x08, 0x48, 0x00, 0x6c, 0x48,
  0x7f, 0x08, 0x48, 0x00, 0x06, 0x48, 0x7f, 0x08, 0x48, 0x00, 0x14, 0x48,
  0x7f, 0x08, 0x48, 0x00, 0x16, 0x48, 0x7f, 0x08, 0x48, 0x00, 0x06, 0x4a,
  0x7f, 0x08, 0x4a, 0x00, 0x14, 0x4c, 0x7f, 0x08, 0x4c, 0x00, 0x08, 0x48,
  0x7f, 0x08, 0x48, 0x00, 0x14, 0x45, 0x7f, 0x08, 0x45, 0x00, 0x06, 0x43,
  0x7f, 0x08, 0x43, 0x00, 0x32, 0x48, 0x7f, 0x08, 0x48, 0x00, 0x06, 0x48,
  0x7f, 0x08, 0x48, 0x00, 0x16, 0x48, 0x7f, 0x08, 0x48, 0x00, 0x14, 0x48,
  0x7f, 0x08, 0x48, 0x00, 0x06, 0x4a, 0x7f, 0x08, 0x4a, 0x00, 0x08, 0x4c,
  0x7f, 0x08, 0x4c, 0x00, 0x7a, 0x48, 0x7f, 0x08, 0x48, 0x00, 0x06, 0x48,
  0x7f, 0x08, 0x48, 0x00, 0x14, 0x48, 0x7f, 0x08, 0x48, 0x00, 0x16, 0x48,
  0x7f, 0x08, 0x48, 0x00, 0x06, 0x4a, 0x7f, 0x08, 0x4a, 0x00, 0x14, 0x4c,
  0x7f, 0x08, 0x4c, 0x00, 0x06, 0x48, 0x7f, 0x08, 0x48, 0x00, 0x16, 0x45,
  0x7f, 0x08, 0x45, 0x00, 0x06, 0x43, 0x7f, 0x08, 0x43, 0x00, 0x32, 0x4c,
  0x7f, 0x08, 0x4c, 0x00, 0x06, 0x4c, 0x7f, 0x08, 0x4c, 0x00, 0x16, 0x4c,
  0x7f, 0x08, 0x4c, 0x00, 0x14, 0x48, 0x7f, 0x08, 0x48, 0x00, 0x06, 0x4c,
  0x7f, 0x08, 0x4c, 0x00, 0x16, 0x4f, 0x7f, 0x08, 0x4f, 0x00, 0x6a, 0x4c,
  0x7f, 0x08, 0x4c, 0x00, 0x08, 0x48, 0x7f, 0x08, 0x48, 0x00, 0x14, 0x43,
  0x7f, 0x08, 0x43, 0x00, 0x24, 0x44, 0x7f, 0x08, 0x44, 0x00, 0x14, 0x45,
  0x7f, 0x08, 0x45, 0x00, 0x06, 0x4d, 0x7f, 0x08, 0x4d, 0x00, 0x16, 0x4d,
  0x7f, 0x08, 0x4d, 0x00, 0x06, 0x45, 0x7f, 0x08, 0x45, 0x00, 0x32, 0x47,
  0x7f, 0x08, 0x47, 0x00, 0x0a, 0x51, 0x7f, 0x08, 0x51, 0x00, 0x0c, 0x51,
  0x7f, 0x08, 0x51, 0x00, 0x0c, 0x51, 0x7f, 0x08, 0x51, 0x00, 0x0a, 0x4f,
  0x7f, 0x08, 0x4f, 0x00, 0x0c, 0x4d, 0x7f, 0x08, 0x4d, 0x00, 0x0a, 0x4c,
  0x7f, 0x08, 0x4c, 0x00, 0x08, 0x48, 0x7f, 0x08, 0x48, 0x00, 0x14, 0x45,
  0x7f, 0x08, 0x45, 0x00, 0x06, 0x43, 0x7f, 0x08, 0x43, 0x00, 0x32, 0x4c,
  0x7f, 0x08, 0x4c, 0x00, 0x06, 0x48, 0x7f, 0x08, 0x48, 0x00, 0x16, 0x43,
  0x7f, 0x0a, 0x43, 0x00, 0x20, 0x44, 0x7f, 0x08, 0x44, 0x00, 0x16, 0x45,
  0x7f, 0x08, 0x45, 0x00, 0x06, 0x4d, 0x7f, 0x08, 0x4d, 0x00, 0x14, 0x4d,
  0x7f, 0x08, 0x4d, 0x00, 0x08, 0x45, 0x7f, 0x08, 0x45, 0x00, 0x30, 0x47,
  0x7f, 0x08, 0x47, 0x00, 0x08, 0x4d, 0x7f, 0x08, 0x4d, 0x00, 0x14, 0x4d,
  0x7f, 0x08, 0x4d, 0x00, 0x06, 0x4d, 0x7f, 0x08, 0x4d, 0x00, 0x0c, 0x4c,
  0x7f, 0x08, 0x4c, 0x00, 0x0c, 0x4a, 0x7f, 0x08, 0x4a, 0x00, 0x0a, 0x48,
  0x7f, 0x08, 0x48, 0x00, 0x3c, 0x00, 0x00, 0x00, 0x00, 0x00, 0x00, 0xff,
  0x2f, 0x00, 0x4d, 0x54, 0x72, 0x6b, 0x00, 0x00, 0x07, 0x58, 0x37, 0xc1,
  0x41, 0x01, 0xb1, 0x07, 0x7f, 0x81, 0x08, 0x91, 0x42, 0x7f, 0x08, 0x42,
  0x00, 0x06, 0x42, 0x7f, 0x08, 0x42, 0x00, 0x14, 0x42, 0x7f, 0x08, 0x42,
  0x00, 0x16, 0x42, 0x7f, 0x08, 0x42, 0x00, 0x06, 0x42, 0x7f, 0x08, 0x42,
  0x00, 0x14, 0x47, 0x7f, 0x08, 0x47, 0x00, 0x32, 0x43, 0x7f, 0x08, 0x43,
  0x00, 0x32, 0x40, 0x7f, 0x08, 0x40, 0x00, 0x24, 0x3c, 0x7f, 0x08, 0x3c,
  0x00, 0x22, 0x37, 0x7f, 0x08, 0x37, 0x00, 0x24, 0x3c, 0x7f, 0x08, 0x3c,
  0x00, 0x14, 0x3e, 0x7f, 0x08, 0x3e, 0x00, 0x16, 0x3d, 0x7f, 0x08, 0x3d,
  0x00, 0x06, 0x3c, 0x7f, 0x08, 0x3c, 0x00, 0x14, 0x3c, 0x7f, 0x08, 0x3c,
  0x00, 0x0c, 0x43, 0x7f, 0x08, 0x43, 0x00, 0x0c, 0x47, 0x7f, 0x08, 0x47,
  0x00, 0x0a, 0x48, 0x7f, 0x08, 0x48, 0x00, 0x16, 0x45, 0x7f, 0x08, 0x45,
  0x00, 0x06, 0x47, 0x7f, 0x08, 0x47, 0x00, 0x14, 0x45, 0x7f, 0x08, 0x45,
  0x00, 0x16, 0x40, 0x7f, 0x0a, 0x40, 0x00, 0x04, 0x41, 0x7f, 0x08, 0x41,
  0x00, 0x06, 0x3e, 0x7f, 0x08, 0x3e, 0x00, 0x24, 0x40, 0x7f, 0x08, 0x40,
  0x00, 0x22, 0x3c, 0x7f, 0x08, 0x3c, 0x00, 0x24, 0x37, 0x7f, 0x08, 0x37,
  0x00, 0x24, 0x3c, 0x7f, 0x08, 0x3c, 0x00, 0x14, 0x3e, 0x7f, 0x08, 0x3e,
  0x00, 0x16, 0x3d, 0x7f, 0x08, 0x3d, 0x00, 0x06, 0x3c, 0x7f, 0x08, 0x3c,
  0x00, 0x14, 0x3c, 0x7f, 0x08, 0x3c, 0x00, 0x0c, 0x43, 0x7f, 0x08, 0x43,
  0x00, 0x0a, 0x47, 0x7f, 0x08, 0x47, 0x00, 0x0c, 0x48, 0x7f, 0x08, 0x48,
  0x00, 0x14, 0x45, 0x7f, 0x08, 0x45, 0x00, 0x08, 0x47, 0x7f, 0x08, 0x47,
  0x00, 0x14, 0x45, 0x7f, 0x08, 0x45, 0x00, 0x14, 0x40, 0x7f, 0x08, 0x40,
  0x00, 0x08, 0x41, 0x7f, 0x08, 0x41, 0x00, 0x06, 0x3e, 0x7f, 0x08, 0x3e,
  0x00, 0x40, 0x4c, 0x7f, 0x08, 0x4c, 0x00, 0x06, 0x4b, 0x7f, 0x08, 0x4b,
  0x00, 0x06, 0x4a, 0x7f, 0x08, 0x4a, 0x00, 0x08, 0x47, 0x7f, 0x08, 0x47,
  0x00, 0x14, 0x48, 0x7f, 0x08, 0x48, 0x00, 0x14, 0x40, 0x7f, 0x08, 0x40,
  0x00, 0x08, 0x41, 0x7f, 0x08, 0x41, 0x00, 0x06, 0x43, 0x7f, 0x08, 0x43,
  0x00, 0x14, 0x3c, 0x7f, 0x08, 0x3c, 0x00, 0x06, 0x40, 0x7f, 0x08, 0x40,
  0x00, 0x08, 0x41, 0x7f, 0x0a, 0x41, 0x00, 0x20, 0x4c, 0x7f, 0x08, 0x4c,
  0x00, 0x08, 0x4b, 0x7f, 0x08, 0x4b, 0x00, 0x06, 0x4a, 0x7f, 0x08, 0x4a,
  0x00, 0x06, 0x47, 0x7f, 0x08, 0x47, 0x00, 0x14, 0x48, 0x7f, 0x08, 0x48,
  0x00, 0x16, 0x4d, 0x7f, 0x08, 0x4d, 0x00, 0x14, 0x4d, 0x7f, 0x08, 0x4d,
  0x00, 0x06, 0x4d, 0x7f, 0x08, 0x4d, 0x00, 0x50, 0x4c, 0x7f, 0x08, 0x4c,
  0x00, 0x06, 0x4b, 0x7f, 0x08, 0x4b, 0x00, 0x06, 0x4a, 0x7f, 0x08, 0x4a,
  0x00, 0x06, 0x47, 0x7f, 0x08, 0x47, 0x00, 0x16, 0x48, 0x7f, 0x08, 0x48,
  0x00, 0x14, 0x40, 0x7f, 0x08, 0x40, 0x00, 0x06, 0x41, 0x7f, 0x08, 0x41,
  0x00, 0x08, 0x43, 0x7f, 0x08, 0x43, 0x00, 0x14, 0x3c, 0x7f, 0x08, 0x3c,
  0x00, 0x06, 0x40, 0x7f, 0x08, 0x40, 0x00, 0x06, 0x41, 0x7f, 0x08, 0x41,
  0x00, 0x24, 0x44, 0x7f, 0x0a, 0x44, 0x00, 0x22, 0x41, 0x7f, 0x08, 0x41,
  0x00, 0x22, 0x40, 0x7f, 0x08, 0x40, 0x00, 0x81, 0x08, 0x4c, 0x7f, 0x08,
  0x4c, 0x00, 0x08, 0x4b, 0x7f, 0x0a, 0x4b, 0x00, 0x04, 0x4a, 0x7f, 0x08,
  0x4a, 0x00, 0x06, 0x47, 0x7f, 0x08, 0x47, 0x00, 0x16, 0x48, 0x7f, 0x08,
  0x48, 0x00, 0x14, 0x40, 0x7f, 0x08, 0x40, 0x00, 0x06, 0x41, 0x7f, 0x08,
  0x41, 0x00, 0x06, 0x43, 0x7f, 0x08, 0x43, 0x00, 0x16, 0x3c, 0x7f, 0x08,
  0x3c, 0x00, 0x06, 0x40, 0x7f, 0x08, 0x40, 0x00, 0x06, 0x41, 0x7f, 0x08,
  0x41, 0x00, 0x24, 0x4c, 0x7f, 0x08, 0x4c, 0x00, 0x06, 0x4b, 0x7f, 0x08,
  0x4b, 0x00, 0x06, 0x4a, 0x7f, 0x08, 0x4a, 0x00, 0x08, 0x47, 0x7f, 0x08,
  0x47, 0x00, 0x14, 0x48, 0x7f, 0x08, 0x48, 0x00, 0x14, 0x4d, 0x7f, 0x08,
  0x4d, 0x00, 0x16, 0x4d, 0x7f, 0x08, 0x4d, 0x00, 0x06, 0x4d, 0x7f, 0x08,
  0x4d, 0x00, 0x4e, 0x4c, 0x7f, 0x08, 0x4c, 0x00, 0x06, 0x4b, 0x7f, 0x08,
  0x4b, 0x00, 0x08, 0x4a, 0x7f, 0x08, 0x4a, 0x00, 0x06, 0x47, 0x7f, 0x08,
  0x47, 0x00, 0x14, 0x48, 0x7f, 0x08, 0x48, 0x00, 0x16, 0x40, 0x7f, 0x08,
  0x40, 0x00, 0x06, 0x41, 0x7f, 0x08, 0x41, 0x00, 0x06, 0x43, 0x7f, 0x08,
  0x43, 0x00, 0x16, 0x3c, 0x7f, 0x08, 0x3c, 0x00, 0x06, 0x40, 0x7f, 0x08,
  0x40, 0x00, 0x06, 0x41, 0x7f, 0x08, 0x41, 0x00, 0x24, 0x44, 0x7f, 0x08,
  0x44, 0x00, 0x22, 0x41, 0x7f, 0x08, 0x41, 0x00, 0x24, 0x40, 0x7f, 0x08,
  0x40, 0x00, 0x6c, 0x44, 0x7f, 0x08, 0x44, 0x00, 0x06, 0x44, 0x7f, 0x08,
  0x44, 0x00, 0x14, 0x44, 0x7f, 0x08, 0x44, 0x00, 0x16, 0x44, 0x7f, 0x08,
  0x44, 0x00, 0x06, 0x46, 0x7f, 0x08, 0x46, 0x00, 0x14, 0x43, 0x7f, 0x08,
  0x43, 0x00, 0x08, 0x40, 0x7f, 0x08, 0x40, 0x00, 0x14, 0x40, 0x7f, 0x08,
  0x40, 0x00, 0x06, 0x3c, 0x7f, 0x08, 0x3c, 0x00, 0x32, 0x44, 0x7f, 0x08,
  0x44, 0x00, 0x06, 0x44, 0x7f, 0x08, 0x44, 0x00, 0x16, 0x44, 0x7f, 0x08,
  0x44, 0x00, 0x14, 0x44, 0x7f, 0x08, 0x44, 0x00, 0x06, 0x46, 0x7f, 0x08,
  0x46, 0x00, 0x06, 0x43, 0x7f, 0x08, 0x43, 0x00, 0x7a, 0x44, 0x7f, 0x08,
  0x44, 0x00, 0x08, 0x44, 0x7f, 0x08, 0x44, 0x00, 0x14, 0x44, 0x7f, 0x08,
  0x44, 0x00, 0x14, 0x44, 0x7f, 0x08, 0x44, 0x00, 0x08, 0x46, 0x7f, 0x08,
  0x46, 0x00, 0x14, 0x43, 0x7f, 0x08, 0x43, 0x00, 0x06, 0x40, 0x7f, 0x08,
  0x40, 0x00, 0x16, 0x40, 0x7f, 0x0a, 0x40, 0x00, 0x04, 0x3c, 0x7f, 0x08,
  0x3c, 0x00, 0x32, 0x42, 0x7f, 0x08, 0x42, 0x00, 0x06, 0x42, 0x7f, 0x08,
  0x42, 0x00, 0x14, 0x42, 0x7f, 0x08, 0x42, 0x00, 0x16, 0x42, 0x7f, 0x08,
  0x42, 0x00, 0x06, 0x42, 0x7f, 0x08, 0x42, 0x00, 0x14, 0x47, 0x7f, 0x08,
  0x47, 0x00, 0x32, 0x43, 0x7f, 0x08, 0x43, 0x00, 0x32, 0x40, 0x7f, 0x08,
  0x40, 0x00, 0x24, 0x3c, 0x7f, 0x08, 0x3c, 0x00, 0x22, 0x37, 0x7f, 0x08,
  0x37, 0x00, 0x24, 0x3c, 0x7f, 0x08, 0x3c, 0x00, 0x14, 0x3e, 0x7f, 0x08,
  0x3e, 0x00, 0x16, 0x3d, 0x7f, 0x08, 0x3d, 0x00, 0x06, 0x3c, 0x7f, 0x0a,
  0x3c, 0x00, 0x14, 0x3c, 0x7f, 0x08, 0x3c, 0x00, 0x0a, 0x43, 0x7f, 0x08,
  0x43, 0x00, 0x0c, 0x47, 0x7f, 0x08, 0x47, 0x00, 0x0a, 0x48, 0x7f, 0x08,
  0x48, 0x00, 0x16, 0x45, 0x7f, 0x08, 0x45, 0x00, 0x06, 0x47, 0x7f, 0x08,
  0x47, 0x00, 0x14, 0x45, 0x7f, 0x08, 0x45, 0x00, 0x16, 0x40, 0x7f, 0x08,
  0x40, 0x00, 0x06, 0x41, 0x7f, 0x08, 0x41, 0x00, 0x06, 0x3e, 0x7f, 0x08,
  0x3e, 0x00, 0x24, 0x40, 0x7f, 0x08, 0x40, 0x00, 0x24, 0x3c, 0x7f, 0x08,
  0x3c, 0x00, 0x22, 0x37, 0x7f, 0x08, 0x37, 0x00, 0x24, 0x3c, 0x7f, 0x08,
  0x3c, 0x00, 0x14, 0x3e, 0x7f, 0x08, 0x3e, 0x00, 0x16, 0x3d, 0x7f, 0x08,
  0x3d, 0x00, 0x06, 0x3c, 0x7f, 0x08, 0x3c, 0x00, 0x14, 0x3c, 0x7f, 0x08,
  0x3c, 0x00, 0x0c, 0x43, 0x7f, 0x08, 0x43, 0x00, 0x0c, 0x47, 0x7f, 0x08,
  0x47, 0x00, 0x0a, 0x48, 0x7f, 0x08, 0x48, 0x00, 0x16, 0x45, 0x7f, 0x08,
  0x45, 0x00, 0x06, 0x47, 0x7f, 0x08, 0x47, 0x00, 0x14, 0x45, 0x7f, 0x08,
  0x45, 0x00, 0x16, 0x40, 0x7f, 0x08, 0x40, 0x00, 0x06, 0x41, 0x7f, 0x08,
  0x41, 0x00, 0x06, 0x3e, 0x7f, 0x08, 0x3e, 0x00, 0x24, 0x48, 0x7f, 0x08,
  0x48, 0x00, 0x06, 0x45, 0x7f, 0x08, 0x45, 0x00, 0x14, 0x40, 0x7f, 0x08,
  0x40, 0x00, 0x24, 0x40, 0x7f, 0x08, 0x40, 0x00, 0x14, 0x41, 0x7f, 0x08,
  0x41, 0x00, 0x08, 0x48, 0x7f, 0x08, 0x48, 0x00, 0x14, 0x48, 0x7f, 0x08,
  0x48, 0x00, 0x06, 0x41, 0x7f, 0x08, 0x41, 0x00, 0x32, 0x43, 0x7f, 0x08,
  0x43, 0x00, 0x0c, 0x4d, 0x7f, 0x08, 0x4d, 0x00, 0x0a, 0x4d, 0x7f, 0x08,
  0x4d, 0x00, 0x0c, 0x4d, 0x7f, 0x08, 0x4d, 0x00, 0x0c, 0x4c, 0x7f, 0x08,
  0x4c, 0x00, 0x0a, 0x4a, 0x7f, 0x08, 0x4a, 0x00, 0x0c, 0x48, 0x7f, 0x08,
  0x48, 0x00, 0x06, 0x45, 0x7f, 0x08, 0x45, 0x00, 0x14, 0x41, 0x7f, 0x08,
  0x41, 0x00, 0x08, 0x40, 0x7f, 0x08, 0x40, 0x00, 0x30, 0x48, 0x7f, 0x08,
  0x48, 0x00, 0x08, 0x45, 0x7f, 0x08, 0x45, 0x00, 0x14, 0x40, 0x7f, 0x08,
  0x40, 0x00, 0x24, 0x40, 0x7f, 0x08, 0x40, 0x00, 0x14, 0x41, 0x7f, 0x08,
  0x41, 0x00, 0x06, 0x48, 0x7f, 0x08, 0x48, 0x00, 0x16, 0x48, 0x7f, 0x08,
  0x48, 0x00, 0x06, 0x41, 0x7f, 0x08, 0x41, 0x00, 0x32, 0x43, 0x7f, 0x08,
  0x43, 0x00, 0x06, 0x4a, 0x7f, 0x08, 0x4a, 0x00, 0x14, 0x4a, 0x7f, 0x08,
  0x4a, 0x00, 0x08, 0x4a, 0x7f, 0x08, 0x4a, 0x00, 0x0a, 0x48, 0x7f, 0x08,
  0x48, 0x00, 0x0c, 0x47, 0x7f, 0x08, 0x47, 0x00, 0x0c, 0x43, 0x7f, 0x08,
  0x43, 0x00, 0x06, 0x40, 0x7f, 0x08, 0x40, 0x00, 0x14, 0x40, 0x7f, 0x08,
  0x40, 0x00, 0x06, 0x3c, 0x7f, 0x08, 0x3c, 0x00, 0x32, 0x48, 0x7f, 0x08,
  0x48, 0x00, 0x06, 0x45, 0x7f, 0x08, 0x45, 0x00, 0x16, 0x40, 0x7f, 0x08,
  0x40, 0x00, 0x22, 0x40, 0x7f, 0x08, 0x40, 0x00, 0x16, 0x41, 0x7f, 0x08,
  0x41, 0x00, 0x06, 0x48, 0x7f, 0x08, 0x48, 0x00, 0x16, 0x48, 0x7f, 0x08,
  0x48, 0x00, 0x06, 0x41, 0x7f, 0x08, 0x41, 0x00, 0x32, 0x43, 0x7f, 0x08,
  0x43, 0x00, 0x0a, 0x4d, 0x7f, 0x08, 0x4d, 0x00, 0x0c, 0x4d, 0x7f, 0x08,
  0x4d, 0x00, 0x0a, 0x4d, 0x7f, 0x08, 0x4d, 0x00, 0x0c, 0x4c, 0x7f, 0x08,
  0x4c, 0x00, 0x0c, 0x4a, 0x7f, 0x08, 0x4a, 0x00, 0x0a, 0x48, 0x7f, 0x08,
  0x48, 0x00, 0x08, 0x45, 0x7f, 0x08, 0x45, 0x00, 0x14, 0x41, 0x7f, 0x08,
  0x41, 0x00, 0x06, 0x40, 0x7f, 0x08, 0x40, 0x00, 0x32, 0x48, 0x7f, 0x08,
  0x48, 0x00, 0x06, 0x45, 0x7f, 0x08, 0x45, 0x00, 0x16, 0x40, 0x7f, 0x08,
  0x40, 0x00, 0x22, 0x40, 0x7f, 0x08, 0x40, 0x00, 0x16, 0x41, 0x7f, 0x08,
  0x41, 0x00, 0x06, 0x48, 0x7f, 0x08, 0x48, 0x00, 0x14, 0x48, 0x7f, 0x08,
  0x48, 0x00, 0x08, 0x41, 0x7f, 0x08, 0x41, 0x00, 0x30, 0x43, 0x7f, 0x08,
  0x43, 0x00, 0x08, 0x4a, 0x7f, 0x08, 0x4a, 0x00, 0x14, 0x4a, 0x7f, 0x08,
  0x4a, 0x00, 0x06, 0x4a, 0x7f, 0x08, 0x4a, 0x00, 0x0c, 0x48, 0x7f, 0x08,
  0x48, 0x00, 0x0a, 0x47, 0x7f, 0x08, 0x47, 0x00, 0x0c, 0x43, 0x7f, 0x08,
  0x43, 0x00, 0x06, 0x40, 0x7f, 0x08, 0x40, 0x00, 0x16, 0x40, 0x7f, 0x0a,
  0x40, 0x00, 0x04, 0x3c, 0x7f, 0x08, 0x3c, 0x00, 0x32, 0x44, 0x7f, 0x08,
  0x44, 0x00, 0x06, 0x44, 0x7f, 0x08, 0x44, 0x00, 0x14, 0x44, 0x7f, 0x08,
  0x44, 0x00, 0x16, 0x44, 0x7f, 0x08, 0x44, 0x00, 0x06, 0x46, 0x7f, 0x08,
  0x46, 0x00, 0x14, 0x43, 0x7f, 0x08, 0x43, 0x00, 0x08, 0x40, 0x7f, 0x08,
  0x40, 0x00, 0x14, 0x40, 0x7f, 0x08, 0x40, 0x00, 0x06, 0x3c, 0x7f, 0x08,
  0x3c, 0x00, 0x32, 0x44, 0x7f, 0x08, 0x44, 0x00, 0x06, 0x44, 0x7f, 0x08,
  0x44, 0x00, 0x16, 0x44, 0x7f, 0x08, 0x44, 0x00, 0x14, 0x44, 0x7f, 0x08,
  0x44, 0x00, 0x06, 0x46, 0x7f, 0x08, 0x46, 0x00, 0x08, 0x43, 0x7f, 0x08,
  0x43, 0x00, 0x7a, 0x44, 0x7f, 0x08, 0x44, 0x00, 0x06, 0x44, 0x7f, 0x08,
  0x44, 0x00, 0x14, 0x44, 0x7f, 0x08, 0x44, 0x00, 0x16, 0x44, 0x7f, 0x08,
  0x44, 0x00, 0x06, 0x46, 0x7f, 0x08, 0x46, 0x00, 0x14, 0x43, 0x7f, 0x08,
  0x43, 0x00, 0x06, 0x40, 0x7f, 0x08, 0x40, 0x00, 0x16, 0x40, 0x7f, 0x08,
  0x40, 0x00, 0x06, 0x3c, 0x7f, 0x08, 0x3c, 0x00, 0x32, 0x42, 0x7f, 0x08,
  0x42, 0x00, 0x06, 0x42, 0x7f, 0x08, 0x42, 0x00, 0x16, 0x42, 0x7f, 0x08,
  0x42, 0x00, 0x14, 0x42, 0x7f, 0x08, 0x42, 0x00, 0x06, 0x42, 0x7f, 0x08,
  0x42, 0x00, 0x16, 0x47, 0x7f, 0x08, 0x47, 0x00, 0x30, 0x43, 0x7f, 0x08,
  0x43, 0x00, 0x32, 0x48, 0x7f, 0x08, 0x48, 0x00, 0x08, 0x45, 0x7f, 0x08,
  0x45, 0x00, 0x14, 0x40, 0x7f, 0x08, 0x40, 0x00, 0x24, 0x40, 0x7f, 0x08,
  0x40, 0x00, 0x14, 0x41, 0x7f, 0x08, 0x41, 0x00, 0x06, 0x48, 0x7f, 0x08,
  0x48, 0x00, 0x16, 0x48, 0x7f, 0x08, 0x48, 0x00, 0x06, 0x41, 0x7f, 0x08,
  0x41, 0x00, 0x32, 0x43, 0x7f, 0x08, 0x43, 0x00, 0x0a, 0x4d, 0x7f, 0x08,
  0x4d, 0x00, 0x0c, 0x4d, 0x7f, 0x08, 0x4d, 0x00, 0x0c, 0x4d, 0x7f, 0x08,
  0x4d, 0x00, 0x0a, 0x4c, 0x7f, 0x08, 0x4c, 0x00, 0x0c, 0x4a, 0x7f, 0x08,
  0x4a, 0x00, 0x0a, 0x48, 0x7f, 0x08, 0x48, 0x00, 0x08, 0x45, 0x7f, 0x08,
  0x45, 0x00, 0x14, 0x41, 0x7f, 0x08, 0x41, 0x00, 0x06, 0x40, 0x7f, 0x08,
  0x40, 0x00, 0x32, 0x48, 0x7f, 0x08, 0x48, 0x00, 0x06, 0x45, 0x7f, 0x08,
  0x45, 0x00, 0x16, 0x40, 0x7f, 0x0a, 0x40, 0x00, 0x20, 0x40, 0x7f, 0x08,
  0x40, 0x00, 0x16, 0x41, 0x7f, 0x08, 0x41, 0x00, 0x06, 0x48, 0x7f, 0x08,
  0x48, 0x00, 0x14, 0x48, 0x7f, 0x08, 0x48, 0x00, 0x08, 0x41, 0x7f, 0x08,
  0x41, 0x00, 0x30, 0x43, 0x7f, 0x08, 0x43, 0x00, 0x08, 0x4a, 0x7f, 0x08,
  0x4a, 0x00, 0x14, 0x4a, 0x7f, 0x08, 0x4a, 0x00, 0x06, 0x4a, 0x7f, 0x08,
  0x4a, 0x00, 0x0c, 0x48, 0x7f, 0x08, 0x48, 0x00, 0x0c, 0x47, 0x7f, 0x08,
  0x47, 0x00, 0x0a, 0x43, 0x7f, 0x08, 0x43, 0x00, 0x06, 0x40, 0x7f, 0x08,
  0x40, 0x00, 0x16, 0x40, 0x7f, 0x08, 0x40, 0x00, 0x06, 0x3c, 0x7f, 0x08,
  0x3c, 0x00, 0x00, 0xff, 0x2f, 0x00, 0x4d, 0x54, 0x72, 0x6b, 0x00, 0x00,
  0x06, 0xdf, 0x3c, 0xc2, 0x1a, 0x01, 0xb2, 0x07, 0x7f, 0x81, 0x03, 0x92,
  0x32, 0x7f, 0x08, 0x32, 0x00, 0x06, 0x32, 0x7f, 0x08, 0x32, 0x00, 0x14,
  0x32, 0x7f, 0x08, 0x32, 0x00, 0x16, 0x32, 0x7f, 0x08, 0x32, 0x00, 0x06,
  0x32, 0x7f, 0x08, 0x32, 0x00, 0x14, 0x43, 0x7f, 0x08, 0x43, 0x00, 0x32,
  0x37, 0x7f, 0x08, 0x37, 0x00, 0x32, 0x37, 0x7f, 0x08, 0x37, 0x00, 0x24,
  0x34, 0x7f, 0x08, 0x34, 0x00, 0x22, 0x30, 0x7f, 0x08, 0x30, 0x00, 0x24,
  0x35, 0x7f, 0x08, 0x35, 0x00, 0x14, 0x37, 0x7f, 0x08, 0x37, 0x00, 0x16,
  0x36, 0x7f, 0x08, 0x36, 0x00, 0x06, 0x35, 0x7f, 0x08, 0x35, 0x00, 0x14,
  0x34, 0x7f, 0x08, 0x34, 0x00, 0x0c, 0x3c, 0x7f, 0x08, 0x3c, 0x00, 0x0c,
  0x40, 0x7f, 0x08, 0x40, 0x00, 0x0a, 0x41, 0x7f, 0x08, 0x41, 0x00, 0x16,
  0x3e, 0x7f, 0x08, 0x3e, 0x00, 0x06, 0x40, 0x7f, 0x08, 0x40, 0x00, 0x14,
  0x3c, 0x7f, 0x08, 0x3c, 0x00, 0x16, 0x39, 0x7f, 0x0a, 0x39, 0x00, 0x04,
  0x3b, 0x7f, 0x08, 0x3b, 0x00, 0x06, 0x37, 0x7f, 0x08, 0x37, 0x00, 0x24,
  0x37, 0x7f, 0x08, 0x37, 0x00, 0x22, 0x34, 0x7f, 0x08, 0x34, 0x00, 0x24,
  0x30, 0x7f, 0x08, 0x30, 0x00, 0x24, 0x35, 0x7f, 0x08, 0x35, 0x00, 0x14,
  0x37, 0x7f, 0x08, 0x37, 0x00, 0x16, 0x36, 0x7f, 0x08, 0x36, 0x00, 0x06,
  0x35, 0x7f, 0x08, 0x35, 0x00, 0x14, 0x34, 0x7f, 0x08, 0x34, 0x00, 0x0c,
  0x3c, 0x7f, 0x08, 0x3c, 0x00, 0x0a, 0x40, 0x7f, 0x08, 0x40, 0x00, 0x0c,
  0x41, 0x7f, 0x08, 0x41, 0x00, 0x14, 0x3e, 0x7f, 0x08, 0x3e, 0x00, 0x08,
  0x40, 0x7f, 0x08, 0x40, 0x00, 0x14, 0x3c, 0x7f, 0x08, 0x3c, 0x00, 0x14,
  0x39, 0x7f, 0x08, 0x39, 0x00, 0x08, 0x3b, 0x7f, 0x08, 0x3b, 0x00, 0x06,
  0x37, 0x7f, 0x08, 0x37, 0x00, 0x24, 0x30, 0x7f, 0x08, 0x30, 0x00, 0x22,
  0x37, 0x7f, 0x08, 0x37, 0x00, 0x24, 0x3c, 0x7f, 0x08, 0x3c, 0x00, 0x14,
  0x35, 0x7f, 0x08, 0x35, 0x00, 0x24, 0x3c, 0x7f, 0x08, 0x3c, 0x00, 0x06,
  0x3c, 0x7f, 0x08, 0x3c, 0x00, 0x14, 0x35, 0x7f, 0x08, 0x35, 0x00, 0x16,
  0x30, 0x7f, 0x08, 0x30, 0x00, 0x24, 0x34, 0x7f, 0x08, 0x34, 0x00, 0x22,
  0x37, 0x7f, 0x08, 0x37, 0x00, 0x06, 0x3c, 0x7f, 0x08, 0x3c, 0x00, 0x16,
  0x4f, 0x7f, 0x08, 0x4f, 0x00, 0x14, 0x4f, 0x7f, 0x08, 0x4f, 0x00, 0x06,
  0x4f, 0x7f, 0x08, 0x4f, 0x00, 0x16, 0x37, 0x7f, 0x08, 0x37, 0x00, 0x14,
  0x30, 0x7f, 0x08, 0x30, 0x00, 0x24, 0x37, 0x7f, 0x08, 0x37, 0x00, 0x24,
  0x3c, 0x7f, 0x08, 0x3c, 0x00, 0x14, 0x35, 0x7f, 0x08, 0x35, 0x00, 0x24,
  0x3c, 0x7f, 0x08, 0x3c, 0x00, 0x06, 0x3c, 0x7f, 0x08, 0x3c, 0x00, 0x14,
  0x35, 0x7f, 0x08, 0x35, 0x00, 0x16, 0x30, 0x7f, 0x08, 0x30, 0x00, 0x14,
  0x38, 0x7f, 0x0a, 0x38, 0x00, 0x22, 0x3a, 0x7f, 0x08, 0x3a, 0x00, 0x22,
  0x3c, 0x7f, 0x08, 0x3c, 0x00, 0x24, 0x37, 0x7f, 0x08, 0x37, 0x00, 0x06,
  0x37, 0x7f, 0x08, 0x37, 0x00, 0x16, 0x30, 0x7f, 0x08, 0x30, 0x00, 0x14,
  0x30, 0x7f, 0x08, 0x30, 0x00, 0x24, 0x37, 0x7f, 0x0a, 0x37, 0x00, 0x20,
  0x3c, 0x7f, 0x08, 0x3c, 0x00, 0x16, 0x35, 0x7f, 0x08, 0x35, 0x00, 0x22,
  0x3c, 0x7f, 0x08, 0x3c, 0x00, 0x08, 0x3c, 0x7f, 0x08, 0x3c, 0x00, 0x14,
  0x35, 0x7f, 0x08, 0x35, 0x00, 0x14, 0x30, 0x7f, 0x08, 0x30, 0x00, 0x24,
  0x34, 0x7f, 0x08, 0x34, 0x00, 0x24, 0x37, 0x7f, 0x08, 0x37, 0x00, 0x06,
  0x3c, 0x7f, 0x08, 0x3c, 0x00, 0x14, 0x4f, 0x7f, 0x08, 0x4f, 0x00, 0x16,
  0x4f, 0x7f, 0x08, 0x4f, 0x00, 0x06, 0x4f, 0x7f, 0x08, 0x4f, 0x00, 0x14,
  0x37, 0x7f, 0x08, 0x37, 0x00, 0x16, 0x30, 0x7f, 0x08, 0x30, 0x00, 0x22,
  0x37, 0x7f, 0x08, 0x37, 0x00, 0x24, 0x3c, 0x7f, 0x0a, 0x3c, 0x00, 0x14,
  0x35, 0x7f, 0x08, 0x35, 0x00, 0x22, 0x3c, 0x7f, 0x08, 0x3c, 0x00, 0x06,
  0x3c, 0x7f, 0x08, 0x3c, 0x00, 0x16, 0x35, 0x7f, 0x08, 0x35, 0x00, 0x14,
  0x30, 0x7f, 0x08, 0x30, 0x00, 0x16, 0x38, 0x7f, 0x08, 0x38, 0x00, 0x22,
  0x3a, 0x7f, 0x08, 0x3a, 0x00, 0x24, 0x3c, 0x7f, 0x08, 0x3c, 0x00, 0x24,
  0x37, 0x7f, 0x08, 0x37, 0x00, 0x06, 0x37, 0x7f, 0x08, 0x37, 0x00, 0x14,
  0x30, 0x7f, 0x08, 0x30, 0x00, 0x16, 0x2c, 0x7f, 0x08, 0x2c, 0x00, 0x22,
  0x33, 0x7f, 0x08, 0x33, 0x00, 0x24, 0x38, 0x7f, 0x08, 0x38, 0x00, 0x14,
  0x37, 0x7f, 0x08, 0x37, 0x00, 0x24, 0x30, 0x7f, 0x08, 0x30, 0x00, 0x24,
  0x2b, 0x7f, 0x08, 0x2b, 0x00, 0x14, 0x2c, 0x7f, 0x08, 0x2c, 0x00, 0x24,
  0x33, 0x7f, 0x08, 0x33, 0x00, 0x22, 0x38, 0x7f, 0x08, 0x38, 0x00, 0x16,
  0x37, 0x7f, 0x08, 0x37, 0x00, 0x22, 0x30, 0x7f, 0x08, 0x30, 0x00, 0x24,
  0x2b, 0x7f, 0x08, 0x2b, 0x00, 0x14, 0x2c, 0x7f, 0x08, 0x2c, 0x00, 0x24,
  0x33, 0x7f, 0x08, 0x33, 0x00, 0x24, 0x38, 0x7f, 0x08, 0x38, 0x00, 0x14,
  0x37, 0x7f, 0x08, 0x37, 0x00, 0x24, 0x30, 0x7f, 0x0a, 0x30, 0x00, 0x20,
  0x2b, 0x7f, 0x08, 0x2b, 0x00, 0x16, 0x32, 0x7f, 0x08, 0x32, 0x00, 0x06,
  0x32, 0x7f, 0x08, 0x32, 0x00, 0x14, 0x32, 0x7f, 0x08, 0x32, 0x00, 0x16,
  0x32, 0x7f, 0x08, 0x32, 0x00, 0x06, 0x32, 0x7f, 0x08, 0x32, 0x00, 0x14,
  0x43, 0x7f, 0x08, 0x43, 0x00, 0x32, 0x37, 0x7f, 0x08, 0x37, 0x00, 0x32,
  0x37, 0x7f, 0x08, 0x37, 0x00, 0x24, 0x34, 0x7f, 0x08, 0x34, 0x00, 0x22,
  0x30, 0x7f, 0x08, 0x30, 0x00, 0x24, 0x35, 0x7f, 0x08, 0x35, 0x00, 0x14,
  0x37, 0x7f, 0x08, 0x37, 0x00, 0x16, 0x36, 0x7f, 0x08, 0x36, 0x00, 0x06,
  0x35, 0x7f, 0x0a, 0x35, 0x00, 0x14, 0x34, 0x7f, 0x08, 0x34, 0x00, 0x0a,
  0x3c, 0x7f, 0x08, 0x3c, 0x00, 0x0c, 0x40, 0x7f, 0x08, 0x40, 0x00, 0x0a,
  0x41, 0x7f, 0x08, 0x41, 0x00, 0x16, 0x3e, 0x7f, 0x08, 0x3e, 0x00, 0x06,
  0x40, 0x7f, 0x08, 0x40, 0x00, 0x14, 0x3c, 0x7f, 0x08, 0x3c, 0x00, 0x16,
  0x39, 0x7f, 0x08, 0x39, 0x00, 0x06, 0x3b, 0x7f, 0x08, 0x3b, 0x00, 0x06,
  0x37, 0x7f, 0x08, 0x37, 0x00, 0x24, 0x37, 0x7f, 0x08, 0x37, 0x00, 0x24,
  0x34, 0x7f, 0x08, 0x34, 0x00, 0x22, 0x30, 0x7f, 0x08, 0x30, 0x00, 0x24,
  0x35, 0x7f, 0x08, 0x35, 0x00, 0x14, 0x37, 0x7f, 0x08, 0x37, 0x00, 0x16,
  0x36, 0x7f, 0x08, 0x36, 0x00, 0x06, 0x35, 0x7f, 0x08, 0x35, 0x00, 0x14,
  0x34, 0x7f, 0x08, 0x34, 0x00, 0x0c, 0x3c, 0x7f, 0x08, 0x3c, 0x00, 0x0c,
  0x40, 0x7f, 0x08, 0x40, 0x00, 0x0a, 0x41, 0x7f, 0x08, 0x41, 0x00, 0x16,
  0x3e, 0x7f, 0x08, 0x3e, 0x00, 0x06, 0x40, 0x7f, 0x08, 0x40, 0x00, 0x14,
  0x3c, 0x7f, 0x08, 0x3c, 0x00, 0x16, 0x39, 0x7f, 0x08, 0x39, 0x00, 0x06,
  0x3b, 0x7f, 0x08, 0x3b, 0x00, 0x06, 0x37, 0x7f, 0x08, 0x37, 0x00, 0x24,
  0x30, 0x7f, 0x08, 0x30, 0x00, 0x22, 0x36, 0x7f, 0x08, 0x36, 0x00, 0x08,
  0x37, 0x7f, 0x08, 0x37, 0x00, 0x14, 0x3c, 0x7f, 0x08, 0x3c, 0x00, 0x14,
  0x35, 0x7f, 0x08, 0x35, 0x00, 0x16, 0x35, 0x7f, 0x08, 0x35, 0x00, 0x14,
  0x3c, 0x7f, 0x08, 0x3c, 0x00, 0x06, 0x3c, 0x7f, 0x08, 0x3c, 0x00, 0x08,
  0x35, 0x7f, 0x08, 0x35, 0x00, 0x14, 0x32, 0x7f, 0x08, 0x32, 0x00, 0x24,
  0x35, 0x7f, 0x0a, 0x35, 0x00, 0x04, 0x37, 0x7f, 0x08, 0x37, 0x00, 0x14,
  0x3b, 0x7f, 0x08, 0x3b, 0x00, 0x16, 0x37, 0x7f, 0x08, 0x37, 0x00, 0x14,
  0x37, 0x7f, 0x08, 0x37, 0x00, 0x16, 0x3c, 0x7f, 0x08, 0x3c, 0x00, 0x06,
  0x3c, 0x7f, 0x08, 0x3c, 0x00, 0x06, 0x37, 0x7f, 0x08, 0x37, 0x00, 0x14,
  0x30, 0x7f, 0x08, 0x30, 0x00, 0x24, 0x36, 0x7f, 0x08, 0x36, 0x00, 0x06,
  0x37, 0x7f, 0x08, 0x37, 0x00, 0x16, 0x3c, 0x7f, 0x08, 0x3c, 0x00, 0x14,
  0x35, 0x7f, 0x08, 0x35, 0x00, 0x16, 0x35, 0x7f, 0x08, 0x35, 0x00, 0x14,
  0x3c, 0x7f, 0x08, 0x3c, 0x00, 0x06, 0x3c, 0x7f, 0x08, 0x3c, 0x00, 0x06,
  0x35, 0x7f, 0x08, 0x35, 0x00, 0x16, 0x37, 0x7f, 0x08, 0x37, 0x00, 0x06,
  0x37, 0x7f, 0x08, 0x37, 0x00, 0x14, 0x37, 0x7f, 0x08, 0x37, 0x00, 0x08,
  0x37, 0x7f, 0x08, 0x37, 0x00, 0x0a, 0x39, 0x7f, 0x08, 0x39, 0x00, 0x0c,
  0x3b, 0x7f, 0x08, 0x3b, 0x00, 0x0c, 0x3c, 0x7f, 0x08, 0x3c, 0x00, 0x14,
  0x37, 0x7f, 0x08, 0x37, 0x00, 0x14, 0x30, 0x7f, 0x08, 0x30, 0x00, 0x32,
  0x30, 0x7f, 0x08, 0x30, 0x00, 0x24, 0x36, 0x7f, 0x08, 0x36, 0x00, 0x06,
  0x37, 0x7f, 0x08, 0x37, 0x00, 0x14, 0x3c, 0x7f, 0x08, 0x3c, 0x00, 0x16,
  0x35, 0x7f, 0x08, 0x35, 0x00, 0x14, 0x35, 0x7f, 0x08, 0x35, 0x00, 0x16,
  0x3c, 0x7f, 0x08, 0x3c, 0x00, 0x06, 0x3c, 0x7f, 0x08, 0x3c, 0x00, 0x06,
  0x35, 0x7f, 0x08, 0x35, 0x00, 0x16, 0x32, 0x7f, 0x08, 0x32, 0x00, 0x22,
  0x35, 0x7f, 0x08, 0x35, 0x00, 0x06, 0x37, 0x7f, 0x08, 0x37, 0x00, 0x16,
  0x3b, 0x7f, 0x08, 0x3b, 0x00, 0x14, 0x37, 0x7f, 0x08, 0x37, 0x00, 0x16,
  0x37, 0x7f, 0x08, 0x37, 0x00, 0x14, 0x3c, 0x7f, 0x08, 0x3c, 0x00, 0x06,
  0x3c, 0x7f, 0x08, 0x3c, 0x00, 0x08, 0x37, 0x7f, 0x08, 0x37, 0x00, 0x14,
  0x30, 0x7f, 0x08, 0x30, 0x00, 0x24, 0x36, 0x7f, 0x08, 0x36, 0x00, 0x06,
  0x37, 0x7f, 0x08, 0x37, 0x00, 0x14, 0x3c, 0x7f, 0x08, 0x3c, 0x00, 0x16,
  0x35, 0x7f, 0x08, 0x35, 0x00, 0x14, 0x35, 0x7f, 0x0a, 0x35, 0x00, 0x14,
  0x3c, 0x7f, 0x08, 0x3c, 0x00, 0x06, 0x3c, 0x7f, 0x08, 0x3c, 0x00, 0x06,
  0x35, 0x7f, 0x08, 0x35, 0x00, 0x14, 0x37, 0x7f, 0x08, 0x37, 0x00, 0x08,
  0x37, 0x7f, 0x08, 0x37, 0x00, 0x14, 0x37, 0x7f, 0x08, 0x37, 0x00, 0x06,
  0x37, 0x7f, 0x08, 0x37, 0x00, 0x0c, 0x39, 0x7f, 0x08, 0x39, 0x00, 0x0a,
  0x3b, 0x7f, 0x08, 0x3b, 0x00, 0x0c, 0x3c, 0x7f, 0x08, 0x3c, 0x00, 0x14,
  0x37, 0x7f, 0x08, 0x37, 0x00, 0x16, 0x30, 0x7f, 0x08, 0x30, 0x00, 0x32,
  0x2c, 0x7f, 0x08, 0x2c, 0x00, 0x22, 0x33, 0x7f, 0x08, 0x33, 0x00, 0x24,
  0x38, 0x7f, 0x08, 0x38, 0x00, 0x14, 0x37, 0x7f, 0x08, 0x37, 0x00, 0x24,
  0x30, 0x7f, 0x08, 0x30, 0x00, 0x24, 0x2b, 0x7f, 0x08, 0x2b, 0x00, 0x14,
  0x2c, 0x7f, 0x08, 0x2c, 0x00, 0x24, 0x33, 0x7f, 0x08, 0x33, 0x00, 0x22,
  0x38, 0x7f, 0x08, 0x38, 0x00, 0x16, 0x37, 0x7f, 0x08, 0x37, 0x00, 0x22,
  0x30, 0x7f, 0x08, 0x30, 0x00, 0x24, 0x2b, 0x7f, 0x0a, 0x2b, 0x00, 0x14,
  0x2c, 0x7f, 0x08, 0x2c, 0x00, 0x22, 0x33, 0x7f, 0x08, 0x33, 0x00, 0x24,
  0x38, 0x7f, 0x08, 0x38, 0x00, 0x14, 0x37, 0x7f, 0x08, 0x37, 0x00, 0x24,
  0x30, 0x7f, 0x08, 0x30, 0x00, 0x22, 0x2b, 0x7f, 0x08, 0x2b, 0x00, 0x16,
  0x32, 0x7f, 0x08, 0x32, 0x00, 0x06, 0x32, 0x7f, 0x08, 0x32, 0x00, 0x16,
  0x32, 0x7f, 0x08, 0x32, 0x00, 0x14, 0x32, 0x7f, 0x08, 0x32, 0x00, 0x06,
  0x32, 0x7f, 0x08, 0x32, 0x00, 0x16, 0x43, 0x7f, 0x08, 0x43, 0x00, 0x30,
  0x37, 0x7f, 0x08, 0x37, 0x00, 0x32, 0x30, 0x7f, 0x08, 0x30, 0x00, 0x24,
  0x36, 0x7f, 0x08, 0x36, 0x00, 0x06, 0x37, 0x7f, 0x08, 0x37, 0x00, 0x16,
  0x3c, 0x7f, 0x08, 0x3c, 0x00, 0x14, 0x35, 0x7f, 0x08, 0x35, 0x00, 0x14,
  0x35, 0x7f, 0x08, 0x35, 0x00, 0x16, 0x3c, 0x7f, 0x08, 0x3c, 0x00, 0x06,
  0x3c, 0x7f, 0x08, 0x3c, 0x00, 0x06, 0x35, 0x7f, 0x08, 0x35, 0x00, 0x16,
  0x32, 0x7f, 0x08, 0x32, 0x00, 0x22, 0x35, 0x7f, 0x08, 0x35, 0x00, 0x08,
  0x37, 0x7f, 0x08, 0x37, 0x00, 0x14, 0x3b, 0x7f, 0x08, 0x3b, 0x00, 0x14,
  0x37, 0x7f, 0x08, 0x37, 0x00, 0x16, 0x37, 0x7f, 0x08, 0x37, 0x00, 0x14,
  0x3c, 0x7f, 0x08, 0x3c, 0x00, 0x06, 0x3c, 0x7f, 0x08, 0x3c, 0x00, 0x08,
  0x37, 0x7f, 0x08, 0x37, 0x00, 0x14, 0x30, 0x7f, 0x08, 0x30, 0x00, 0x24,
  0x36, 0x7f, 0x0a, 0x36, 0x00, 0x04, 0x37, 0x7f, 0x08, 0x37, 0x00, 0x14,
  0x3c, 0x7f, 0x08, 0x3c, 0x00, 0x16, 0x35, 0x7f, 0x08, 0x35, 0x00, 0x14,
  0x35, 0x7f, 0x08, 0x35, 0x00, 0x16, 0x3c, 0x7f, 0x08, 0x3c, 0x00, 0x06,
  0x3c, 0x7f, 0x08, 0x3c, 0x00, 0x06, 0x35, 0x7f, 0x08, 0x35, 0x00, 0x14,
  0x37, 0x7f, 0x08, 0x37, 0x00, 0x08, 0x37, 0x7f, 0x08, 0x37, 0x00, 0x14,
  0x37, 0x7f, 0x08, 0x37, 0x00, 0x06, 0x37, 0x7f, 0x08, 0x37, 0x00, 0x0c,
  0x39, 0x7f, 0x08, 0x39, 0x00, 0x0c, 0x3b, 0x7f, 0x08, 0x3b, 0x00, 0x0a,
  0x3c, 0x7f, 0x08, 0x3c, 0x00, 0x16, 0x37, 0x7f, 0x08, 0x37, 0x00, 0x14,
  0x30, 0x7f, 0x08, 0x30, 0x00, 0x00, 0xff, 0x2f, 0x00
};
unsigned int SuperMario_mid_len = 5565;
