unsigned char twinkle_mid[] = {
  0x4d, 0x54, 0x68, 0x64, 0x00, 0x00, 0x00, 0x06, 0x00, 0x01, 0x00, 0x03,
  0x00, 0x78, 0x4d, 0x54, 0x72, 0x6b, 0x00, 0x00, 0x00, 0x04, 0x00, 0xff,
  0x2f, 0x00, 0x4d, 0x54, 0x72, 0x6b, 0x00, 0x00, 0x00, 0x76, 0x00, 0x90,
  0x48, 0x40, 0x78, 0x80, 0x48, 0x40, 0x00, 0x90, 0x48, 0x40, 0x78, 0x80,
  0x48, 0x40, 0x00, 0x90, 0x4f, 0x40, 0x78, 0x80, 0x4f, 0x40, 0x00, 0x90,
  0x4f, 0x40, 0x78, 0x80, 0x4f, 0x40, 0x00, 0x90, 0x51, 0x40, 0x78, 0x80,
  0x51, 0x40, 0x00, 0x90, 0x51, 0x40, 0x78, 0x80, 0x51, 0x40, 0x00, 0x90,
  0x4f, 0x40, 0x81, 0x70, 0x80, 0x4f, 0x40, 0x00, 0x90, 0x4d, 0x40, 0x78,
  0x80, 0x4d, 0x40, 0x00, 0x90, 0x4d, 0x40, 0x78, 0x80, 0x4d, 0x40, 0x00,
  0x90, 0x4c, 0x40, 0x78, 0x80, 0x4c, 0x40, 0x00, 0x90, 0x4c, 0x40, 0x78,
  0x80, 0x4c, 0x40, 0x00, 0x90, 0x4a, 0x40, 0x78, 0x80, 0x4a, 0x40, 0x00,
  0x90, 0x4a, 0x40, 0x78, 0x80, 0x4a, 0x40, 0x00, 0x90, 0x48, 0x40, 0x81,
  0x70, 0x80, 0x48, 0x40, 0x00, 0xff, 0x2f, 0x00, 0x4d, 0x54, 0x72, 0x6b,
  0x00, 0x00, 0x00, 0x7d, 0x00, 0x90, 0x30, 0x40, 0x78, 0x80, 0x30, 0x40,
  0x00, 0x90, 0x3c, 0x40, 0x78, 0x80, 0x3c, 0x40, 0x00, 0x90, 0x40, 0x40,
  0x78, 0x80, 0x40, 0x40, 0x00, 0x90, 0x3c, 0x40, 0x78, 0x80, 0x3c, 0x40,
  0x00, 0x90, 0x41, 0x40, 0x78, 0x80, 0x41, 0x40, 0x00, 0x90, 0x3c, 0x40,
  0x78, 0x80, 0x3c, 0x40, 0x00, 0x90, 0x40, 0x40, 0x78, 0x80, 0x40, 0x40,
  0x00, 0x90, 0x3c, 0x40, 0x78, 0x80, 0x3c, 0x40, 0x00, 0x90, 0x3e, 0x40,
  0x78, 0x80, 0x3e, 0x40, 0x00, 0x90, 0x3b, 0x40, 0x78, 0x80, 0x3b, 0x40,
  0x00, 0x90, 0x3c, 0x40, 0x78, 0x80, 0x3c, 0x40, 0x00, 0x90, 0x39, 0x40,
  0x78, 0x80, 0x39, 0x40, 0x00, 0x90, 0x35, 0x40, 0x78, 0x80, 0x35, 0x40,
  0x00, 0x90, 0x37, 0x40, 0x78, 0x80, 0x37, 0x40, 0x00, 0x90, 0x30, 0x40,
  0x81, 0x70, 0x80, 0x30, 0x40, 0x00, 0xff, 0x2f, 0x00
};
unsigned int twinkle_mid_len = 285;
